<?xml version="1.0" standalone="no"?>
<!DOCTYPE svg PUBLIC "-//W3C//DTD SVG 1.1//EN" "http://www.w3.org/Graphics/SVG/1.1/DTD/svg11.dtd" >
<svg>
<metadata>
Created by FontForge 20090622 at Tue Mar 15 19:15:02 2016
 By deploy user
Copyright 1988-1991 Adobe Systems Inc.
</metadata>
<defs>
<font id="HelveticaInseratLT-Roman" horiz-adv-x="1024" >
  <font-face 
    font-family="HelveticaInserat LT"
    font-weight="400"
    font-stretch="normal"
    units-per-em="2048"
    panose-1="2 11 5 0 0 0 0 0 0 0"
    ascent="1638"
    descent="-410"
    x-height="1309"
    cap-height="1636"
    bbox="-360 -512 2048 2028"
    underline-thickness="102"
    underline-position="-154"
    unicode-range="U+0020-U+2122"
  />
<missing-glyph 
d="M102 0h820v1049h-820v-1049zM119 16v1016h786v-1016h-786z" />
    <glyph glyph-name=".notdef" 
d="M102 0h820v1049h-820v-1049zM119 16v1016h786v-1016h-786z" />
    <glyph glyph-name=".null" horiz-adv-x="0" 
 />
    <glyph glyph-name="nonmarkingreturn" horiz-adv-x="512" 
 />
    <glyph glyph-name="space" unicode=" " horiz-adv-x="512" 
 />
    <glyph glyph-name="exclam" unicode="!" horiz-adv-x="684" 
d="M172 1636v-639l78 -524h184l78 524v639h-340zM512 0v377h-340v-377h340z" />
    <glyph glyph-name="quotedbl" unicode="&#x22;" 
d="M577 1059h291v577h-291v-577zM156 1059h290v577h-290v-577z" />
    <glyph glyph-name="numbersign" unicode="#" 
d="M59 956h152l-31 -268h-182v-242h151l-53 -446h236l53 446h168l-53 -446h231l51 446h183v242h-152l31 268h182v242h-152l52 412h-234l-49 -412h-166l49 412h-235l-49 -412h-183v-242zM614 956l-32 -268h-168l34 268h166z" />
    <glyph glyph-name="dollar" unicode="$" 
d="M59 358q2 -196 111 -290q104 -95 256 -95v-147h168v147q371 60 373 435q-2 176 -86 301q-84 120 -193 208l-190 166q-39 39 -62 78q-26 37 -26 78q0 51 26 86q25 33 66 33q63 -2 86 -41q18 -41 18 -96v-109h340v104q8 383 -352 420v148h-168v-148q-166 -12 -264 -119
q-103 -108 -105 -296q2 -164 88 -277q82 -113 187 -197q106 -83 186 -161q82 -80 84 -181q0 -151 -96 -153q-76 0 -92 49q-17 45 -15 113v129h-340v-185z" />
    <glyph glyph-name="percent" unicode="%" horiz-adv-x="1821" 
d="M1286 586q0 32 10 51q11 18 49 18q37 0 48 -18q8 -19 8 -51v-363q0 -28 -8 -47q-11 -22 -48 -22q-38 0 -49 22q-10 19 -10 47v363zM190 1024q0 -135 82 -193q76 -59 207 -57q129 -2 207 57q76 58 78 193v362q-2 140 -78 197q-78 53 -207 53q-131 0 -207 -53
q-82 -57 -82 -197v-362zM420 1386q0 33 10 52q10 18 49 18q37 0 47 -18q8 -19 8 -52v-362q0 -29 -8 -47q-10 -23 -47 -23q-39 0 -49 23q-10 18 -10 47v362zM598 -53h197l428 1716h-191zM1057 223q0 -135 82 -192q75 -58 206 -58q129 0 207 58q76 57 78 192v363
q-2 139 -78 196q-78 54 -207 54q-131 0 -206 -54q-82 -57 -82 -196v-363z" />
    <glyph glyph-name="ampersand" unicode="&#x26;" horiz-adv-x="1366" 
d="M983 909q-2 -67 -31 -164q-28 -98 -39 -102l-143 258q100 76 168 184q67 109 70 236q-3 168 -109 244q-109 71 -266 71q-160 0 -266 -86q-107 -90 -109 -256q2 -96 47 -186q43 -92 90 -170q-147 -82 -223 -221q-78 -142 -78 -254q0 -47 10 -127q11 -80 50 -162
q41 -82 129 -139q84 -60 233 -62q193 0 336 127v0l51 -100h363l-193 348q94 115 141 266q45 152 58 295h-289zM532 688l193 -360q-31 -27 -68 -43q-39 -21 -82 -21q-71 2 -112 60q-41 53 -41 120q0 80 31 136q28 53 79 108v0zM647 1395q84 -5 82 -93q-2 -51 -31 -92
q-30 -39 -63 -69v0l-43 77q-29 50 -31 93q-2 82 86 84v0z" />
    <glyph glyph-name="quotesingle" unicode="'" horiz-adv-x="569" 
d="M139 1059h291v577h-291v-577z" />
    <glyph glyph-name="parenleft" unicode="(" horiz-adv-x="682" 
d="M602 1636q-213 -14 -330 -147q-116 -135 -127 -350v-891q11 -207 136 -324q124 -116 321 -149v0v180q-51 0 -78 22q-30 21 -45 52q-20 69 -18 145v1038q0 49 4 92q2 43 14 78q23 72 123 74v180z" />
    <glyph glyph-name="parenright" unicode=")" horiz-adv-x="682" 
d="M80 -225v0q201 33 323 149q123 117 134 324v891q-9 215 -123 350q-117 133 -334 147v-180q55 0 84 -18q31 -21 41 -56q18 -71 16 -170v-1038q2 -76 -16 -145q-23 -72 -125 -74v-180z" />
    <glyph glyph-name="asterisk" unicode="*" horiz-adv-x="797" 
d="M473 1173l162 -114v0l82 129l-191 112l191 113l-72 137v0l-172 -119v0l14 205h-172l13 -207v0l-168 123v0l-76 -139l182 -115l-186 -112l86 -131v0l162 118v0l-6 -213h167l-16 213v0z" />
    <glyph glyph-name="plus" unicode="+" horiz-adv-x="1229" 
d="M469 811h-373v-291h373v-373h291v373h372v291h-372v373h-291v-373z" />
    <glyph glyph-name="comma" unicode="," horiz-adv-x="512" 
d="M86 0h168q-23 -70 -66 -129q-47 -57 -102 -104h190q43 14 95 96q24 41 41 84q14 41 14 78v352h-340v-377z" />
    <glyph glyph-name="hyphenminus" unicode="-" horiz-adv-x="682" 
d="M72 541h538v303h-538v-303z" />
    <glyph glyph-name="period" unicode="." horiz-adv-x="512" 
d="M426 0v377h-340v-377h340z" />
    <glyph glyph-name="slash" unicode="/" horiz-adv-x="569" 
d="M-84 -27h291l446 1690h-291z" />
    <glyph glyph-name="zero" unicode="0" 
d="M61 383q5 -399 451 -410q446 11 450 410v844q-4 401 -450 409q-449 -8 -451 -409v-844zM426 1253q0 64 27 86q24 19 59 19t61 -19q23 -22 25 -86v-897q-2 -61 -25 -82q-26 -22 -61 -22t-59 22q-27 21 -27 82v897z" />
    <glyph glyph-name="one" unicode="1" 
d="M104 1208h258v-1208h353v1610h-307q-17 -43 -48 -74q-30 -33 -75 -53q-90 -41 -181 -45v-230z" />
    <glyph glyph-name="two" unicode="2" 
d="M76 1044h340v162q-2 62 18 107q17 43 82 45q66 -2 86 -45q14 -45 14 -107q-2 -149 -84 -246q-36 -51 -88 -98l-102 -100t-102 -113q-50 -59 -95 -139q-86 -152 -102 -410v-100h926v303h-551q6 25 16 45q8 25 21 45q69 115 161 201l170 166q86 82 140 186q53 105 55 262
q-6 428 -442 428q-461 2 -463 -465v-127z" />
    <glyph glyph-name="three" unicode="3" 
d="M49 389q8 -418 457 -416q268 2 366 138q93 135 90 385q3 129 -32 231q-19 51 -58 88q-39 39 -102 57q61 29 96 68q37 37 56 82q30 90 28 207q-2 227 -121 319q-120 90 -323 88q-266 -2 -365 -133q-100 -131 -84 -366h351v102q0 121 92 119q55 0 71 -33q15 -33 15 -78
v-133q-2 -61 -47 -92q-48 -33 -109 -33h-63v-266q143 2 190 -47q43 -49 41 -187v-114q0 -47 -18 -84q-23 -39 -80 -39q-56 0 -76 39q-23 37 -23 84v168h-352v-154z" />
    <glyph glyph-name="four" unicode="4" 
d="M39 305h471v-305h352v305h123v291h-123v690h-137q-66 -256 -215 -469v-221h-264q327 459 407 1014h-379q-32 -500 -235 -967v-338z" />
    <glyph glyph-name="five" unicode="5" 
d="M86 727h315q0 51 23 86q20 35 76 37q57 -2 80 -37q18 -35 18 -86v-352q0 -47 -18 -84q-23 -39 -80 -39q-56 0 -76 39q-23 37 -23 84v155h-352v-141q8 -418 457 -416q260 2 360 144q99 141 96 391v227q0 180 -86 287q-90 104 -290 106q-33 0 -86 -12q-56 -14 -107 -51h-4
v242h522v303h-825v-883z" />
    <glyph glyph-name="six" unicode="6" 
d="M61 383q5 -399 451 -410q446 11 450 410v317q3 189 -69 308q-72 118 -270 120q-70 0 -115 -14q-47 -20 -90 -78l-4 4v183q-4 133 98 135q100 -2 98 -135h328q-8 421 -426 413q-449 -8 -451 -409v-844zM426 745q0 64 27 86q24 19 59 19t61 -19q23 -22 25 -86v-389
q-2 -61 -25 -82q-26 -22 -61 -22t-59 22q-27 21 -27 82v389z" />
    <glyph glyph-name="seven" unicode="7" 
d="M25 1307h585l-76 -152q-241 -463 -313 -983q-10 -82 -14 -172h389q4 92 12 180q39 527 266 1000q41 79 88 157v273h-937v-303z" />
    <glyph glyph-name="eight" unicode="8" 
d="M61 383q5 -399 451 -410q446 11 450 410v135q3 123 -26 213q-19 43 -57 78q-39 35 -107 55q100 45 141 119q39 72 37 133v111q0 45 -6 114q-8 68 -47 133q-39 70 -129 115q-92 45 -256 47q-162 -2 -252 -47t-131 -115q-39 -65 -47 -133q-10 -69 -8 -114v-111
q2 -61 39 -135q20 -35 53 -64q31 -30 80 -53q-68 -24 -105 -65q-39 -41 -55 -88q-18 -47 -20 -97q-3 -24 -3 -47q-2 -24 -2 -49v-135zM426 616q0 64 27 86q24 19 59 19t61 -19q23 -22 25 -86v-260q-2 -61 -25 -82q-26 -22 -61 -22t-59 22q-27 21 -27 82v260zM426 1253
q0 64 27 86q24 19 59 19t61 -19q23 -22 25 -86v-149q-2 -62 -25 -82q-26 -23 -61 -23t-59 23q-27 20 -27 82v149z" />
    <glyph glyph-name="nine" unicode="9" 
d="M962 1227q-4 401 -450 409q-449 -8 -451 -409v-318q2 -90 21 -168q18 -75 53 -135q70 -123 266 -125q72 -2 119 19q45 16 86 73l4 -4v-182q2 -133 -98 -135q-102 2 -98 135h-328q6 -422 426 -414q446 11 450 410v844zM598 864q0 -61 -23 -82q-24 -22 -63 -22
q-35 0 -59 22q-27 21 -27 82v389q0 64 27 86q24 19 59 19q39 0 63 -19q23 -22 23 -86v-389z" />
    <glyph glyph-name="colon" unicode=":" horiz-adv-x="512" 
d="M86 813h340v377h-340v-377zM86 0h340v377h-340v-377z" />
    <glyph glyph-name="semicolon" unicode=";" horiz-adv-x="512" 
d="M86 0h168q-23 -70 -66 -129q-47 -57 -102 -104h190q43 14 95 96q24 41 41 84q14 41 14 78v352h-340v-377zM86 813h340v377h-340v-377z" />
    <glyph glyph-name="less" unicode="&#x3c;" horiz-adv-x="1229" 
d="M1132 131v0v315l-626 218v4l626 217v315v0l-1036 -389v-291z" />
    <glyph glyph-name="equal" unicode="=" horiz-adv-x="1229" 
d="M1132 1065h-1036v-291h1036v291zM1132 557h-1036v-291h1036v291z" />
    <glyph glyph-name="greater" unicode="&#x3e;" horiz-adv-x="1229" 
d="M96 131v0l1036 389v291l-1036 389v0v-315l627 -217v-4l-627 -218v-315z" />
    <glyph glyph-name="question" unicode="?" 
d="M555 473q2 137 68 229q30 50 67 91l76 79q84 78 145 170q62 93 64 226q-2 204 -123 303q-121 92 -330 92q-207 -2 -323 -113q-121 -110 -121 -295v-137h315v113q0 82 27 135q26 53 88 55q72 -2 94 -49q21 -49 21 -119q-3 -90 -52 -164q-47 -71 -114 -143
q-64 -72 -113 -162q-53 -90 -55 -219v-92h266zM250 0h340v377h-340v-377z" />
    <glyph glyph-name="at" unicode="@" horiz-adv-x="1802" 
d="M868 573q-84 0 -127 60q-45 55 -45 133q0 94 64 166q59 73 159 76q84 0 136 -52q51 -53 51 -139q0 -98 -64 -170q-65 -72 -174 -74v0zM1165 1116v0q-104 133 -278 133q-209 -4 -332 -160q-125 -151 -125 -360q2 -174 115 -289q110 -118 260 -121q76 0 131 35q53 31 86 78
h6q8 -113 141 -113q56 0 148 33q43 17 92 41q47 25 92 62q94 73 162 200q65 129 67 322q-6 319 -243 502q-234 182 -547 184q-369 -4 -612 -240q-252 -235 -256 -608q4 -375 260 -604q250 -234 620 -238q422 4 670 342h-223q-170 -135 -428 -137q-293 2 -471 172
q-185 166 -187 465q2 285 170 463q164 176 451 180q266 0 426 -139q164 -139 166 -414q0 -102 -17 -170q-18 -67 -47 -106q-29 -37 -59 -52q-33 -16 -62 -16q-55 2 -55 47q2 45 14 76l99 541h-213z" />
    <glyph glyph-name="A" unicode="A" horiz-adv-x="1139" 
d="M14 0h377l39 291h264l35 -291h395l-307 1636h-500zM565 1382h4l88 -800h-188z" />
    <glyph glyph-name="B" unicode="B" horiz-adv-x="1139" 
d="M84 0h534q248 2 347 141q92 133 90 344q6 320 -248 377v4q133 49 172 152q37 102 35 233q0 393 -408 385h-522v-1636zM461 723h86q86 -2 110 -68q23 -63 21 -153q2 -119 -21 -170q-26 -53 -118 -53h-78v444zM461 1358h84q69 0 94 -45q22 -47 22 -133q3 -78 -20 -134
q-25 -57 -111 -57h-69v369z" />
    <glyph glyph-name="C" unicode="C" horiz-adv-x="1139" 
d="M84 446q8 -462 485 -473q475 11 486 473v207h-377v-239q2 -35 -12 -90q-9 -25 -31 -41q-23 -19 -66 -19q-75 2 -94 60q-8 26 -12 51q-2 22 -2 39v809q-2 47 14 96q19 51 94 53q43 0 66 -12q22 -17 31 -41q14 -49 12 -96v-185h377v152q-2 239 -138 358q-133 115 -348 115
q-213 0 -346 -115q-137 -119 -139 -358v-744z" />
    <glyph glyph-name="D" unicode="D" horiz-adv-x="1139" 
d="M461 1358h59q156 0 158 -140v-800q-2 -142 -158 -139h-59v1079zM84 0h561q158 0 281 98q125 101 129 322v778q2 195 -82 315q-90 121 -328 123h-561v-1636z" />
    <glyph glyph-name="E" unicode="E" 
d="M84 0h856v315h-479v365h403v315h-403v326h461v315h-838v-1636z" />
    <glyph glyph-name="F" unicode="F" horiz-adv-x="909" 
d="M84 0h377v680h366v315h-366v326h409v315h-786v-1636z" />
    <glyph glyph-name="G" unicode="G" horiz-adv-x="1139" 
d="M84 446q-2 -190 74 -327q39 -66 106 -105q66 -41 166 -41q195 0 291 160h4v-133h330v901h-498v-303h133v-211q0 -125 -121 -123q-75 2 -94 60q-8 26 -12 51q-2 22 -2 39v809q-2 45 22 94q23 53 94 55q121 -2 119 -129v-164h359v182q0 117 -39 195q-37 78 -107 123
q-141 86 -340 84q-213 0 -346 -115q-137 -119 -139 -358v-744z" />
    <glyph glyph-name="H" unicode="H" horiz-adv-x="1139" 
d="M84 0h377v696h217v-696h377v1636h-377v-612h-217v612h-377v-1636z" />
    <glyph glyph-name="I" unicode="I" horiz-adv-x="569" 
d="M96 0h377v1636h-377v-1636z" />
    <glyph glyph-name="J" unicode="J" 
d="M940 1636h-377v-1265q0 -60 -22 -84q-23 -23 -56 -23q-47 0 -59 35q-14 31 -12 70v278h-365v-239q0 -138 43 -224q41 -88 107 -133q65 -45 141 -61q74 -17 145 -17q453 -4 455 435v1228z" />
    <glyph glyph-name="K" unicode="K" horiz-adv-x="1139" 
d="M84 0h364v451l89 135v0l167 -586h402l-316 958l314 678h-400l-249 -669h-7v669h-364v-1636z" />
    <glyph glyph-name="L" unicode="L" horiz-adv-x="909" 
d="M84 0h786v315h-409v1321h-377v-1636z" />
    <glyph glyph-name="M" unicode="M" horiz-adv-x="1593" 
d="M94 0h365v1272h4l211 -1272h245l211 1272h5v-1272h364v1636h-594l-106 -811h-4l-107 811h-594v-1636z" />
    <glyph glyph-name="N" unicode="N" horiz-adv-x="1251" 
d="M84 0h364v1012h5l305 -1012h409v1636h-364v-964h-4l-303 964h-412v-1636z" />
    <glyph glyph-name="O" unicode="O" horiz-adv-x="1139" 
d="M461 1223q-2 47 14 96q19 51 94 53q43 0 66 -12q22 -17 31 -41q14 -49 12 -96v-809q2 -35 -12 -90q-9 -25 -31 -41q-23 -19 -66 -19q-75 2 -94 60q-8 26 -12 51q-2 22 -2 39v809zM84 446q8 -462 485 -473q475 11 486 473v744q-2 239 -138 358q-133 115 -348 115
q-213 0 -346 -115q-137 -119 -139 -358v-744z" />
    <glyph glyph-name="P" unicode="P" horiz-adv-x="1139" 
d="M461 1345h43q49 0 86 -2q35 -4 59 -22q45 -31 45 -174q0 -55 -2 -92q-6 -41 -20 -66q-27 -49 -117 -49h-94v405zM84 0h377v649h213q129 0 207 45q79 41 120 111q43 71 58 157q12 87 12 177q2 313 -135 411q-139 90 -449 86h-403v-1636z" />
    <glyph glyph-name="Q" unicode="Q" horiz-adv-x="1139" 
d="M461 1223q-2 47 14 96q19 51 94 53q43 0 66 -12q22 -17 31 -41q14 -49 12 -96v-809q2 -35 -12 -90q-9 -25 -31 -41q-23 -19 -66 -19q-75 2 -94 60q-8 26 -12 51q-2 22 -2 39v809zM84 446q8 -462 487 -473q60 -94 111 -198l305 30l-145 236q213 137 213 405v744
q-2 239 -138 358q-133 115 -348 115q-213 0 -346 -115q-137 -119 -139 -358v-744z" />
    <glyph glyph-name="R" unicode="R" horiz-adv-x="1139" 
d="M84 0h377v707h69q80 0 113 -31q31 -33 31 -105v-262q-2 -84 6 -174t37 -135h372q-28 45 -34 135q-4 90 -4 174v289q-7 213 -220 260v4q146 47 191 141q39 95 37 238q6 408 -477 395h-498v-1636zM461 1358h73q56 0 86 -11q31 -12 44 -36q14 -21 16 -56q2 -34 2 -77
q2 -82 -14 -136q-21 -57 -115 -57h-92v373z" />
    <glyph glyph-name="S" unicode="S" horiz-adv-x="1139" 
d="M70 555v-176q0 -62 24 -131q25 -72 80 -133q57 -62 152 -101q94 -39 231 -41q147 2 248 45q100 41 157 107q58 65 84 137q23 70 23 129q0 125 -27 207q-28 82 -75 139q-48 58 -101 101q-57 41 -110 86q-119 86 -213 170q-43 43 -72 81q-29 37 -29 74q2 121 129 123
q78 -2 101 -59q20 -56 18 -121v-88h352v147q4 404 -471 412q-475 6 -481 -459q0 -90 29 -158q24 -69 67 -120q43 -52 99 -95l108 -92q119 -78 207 -159q90 -82 92 -189q0 -53 -33 -88q-32 -39 -98 -39q-78 0 -102 53q-27 50 -25 117v121h-364z" />
    <glyph glyph-name="T" unicode="T" horiz-adv-x="909" 
d="M23 1321h243v-1321h377v1321h244v315h-864v-315z" />
    <glyph glyph-name="U" unicode="U" horiz-adv-x="1139" 
d="M84 446q8 -462 485 -473q475 11 486 473v1190h-377v-1194q2 -65 -12 -114q-9 -23 -31 -35q-23 -17 -66 -17q-75 0 -94 52q-16 49 -14 114v1194h-377v-1190z" />
    <glyph glyph-name="V" unicode="V" 
d="M264 0h467l279 1636h-379l-125 -1163h-4l-103 1163h-385z" />
    <glyph glyph-name="W" unicode="W" horiz-adv-x="1706" 
d="M309 0h420l125 1008h4l111 -1008h419l287 1636h-379l-135 -1163h-4l-115 1163h-366l-121 -1163h-4l-133 1163h-387z" />
    <glyph glyph-name="X" unicode="X" horiz-adv-x="1139" 
d="M20 0h392l147 528h4l160 -528h395l-319 870l301 766h-391l-132 -465h-4l-129 465h-405l299 -753z" />
    <glyph glyph-name="Y" unicode="Y" 
d="M324 647v-647h376v674l308 962h-383l-111 -553h-4l-105 553h-389z" />
    <glyph glyph-name="Z" unicode="Z" 
d="M59 1321h508l-530 -1016v-305h950v315h-534l534 1016v305h-928v-315z" />
    <glyph glyph-name="bracketleft" unicode="[" horiz-adv-x="682" 
d="M160 -225h458v205h-143v1451h143v205h-458v-1861z" />
    <glyph glyph-name="backslash" unicode="\" horiz-adv-x="569" 
d="M207 1663h-291l446 -1690h291z" />
    <glyph glyph-name="bracketright" unicode="]" horiz-adv-x="682" 
d="M522 -225v1861h-459v-205h144v-1451h-144v-205h459z" />
    <glyph glyph-name="asciicircum" unicode="^" horiz-adv-x="1229" 
d="M422 862l192 488v0l191 -488h327l-331 748h-373l-332 -748h326z" />
    <glyph glyph-name="underscore" unicode="_" 
d="M1024 -256v102h-1024v-102h1024z" />
    <glyph glyph-name="grave" unicode="`" horiz-adv-x="569" 
d="M6 1704l223 -279h191l-90 279h-324z" />
    <glyph glyph-name="a" unicode="a" 
d="M944 926q2 211 -92 311q-98 98 -334 98q-184 -2 -297 -86q-115 -88 -117 -233v-119h328v106q-2 89 90 91q86 -2 82 -109q-2 -100 -78 -143q-37 -23 -84 -41l-96 -43q-47 -21 -94 -47q-45 -31 -86 -74q-37 -43 -60 -107q-26 -65 -26 -157q0 -78 10 -150q10 -71 37 -129
q31 -55 88 -86q57 -35 152 -35q159 2 249 127h4v-100h324v926zM604 657v-352q0 -47 -18 -80q-21 -35 -64 -35q-78 -2 -78 105v174q0 74 62 117l98 71v0z" />
    <glyph glyph-name="b" unicode="b" 
d="M80 0h352v131h4q70 -156 246 -158q258 7 262 392v638q0 328 -256 332q-180 0 -252 -145h-4v446h-352v-1636zM432 903q-2 64 19 115q18 49 71 51q27 0 49 -18q21 -21 21 -62v-663q0 -47 -21 -66q-20 -20 -49 -20q-65 2 -78 73q-14 68 -12 140v450z" />
    <glyph glyph-name="c" unicode="c" 
d="M80 346q0 -55 20 -119q19 -65 66 -123q49 -57 133 -92q82 -37 213 -39q131 2 217 39q86 35 133 92q25 29 41 62q16 31 25 61q16 64 16 119v211h-352v-235q0 -37 -8 -70q-13 -35 -72 -37q-55 2 -70 37q-12 33 -10 70v665q-2 37 10 72q15 33 70 35q31 0 49 -9
q16 -10 23 -26q8 -35 8 -72v-164h352v139q0 60 -16 125q-9 33 -25 64t-41 57q-47 58 -133 92q-86 35 -217 35t-213 -35q-84 -34 -133 -92q-47 -55 -66 -121q-20 -65 -20 -125v-616z" />
    <glyph glyph-name="d" unicode="d" 
d="M944 1636h-352v-446h-4q-39 76 -97 112q-61 33 -155 33q-256 -4 -256 -332v-638q2 -385 262 -392q176 2 246 158h4v-131h352v1636zM592 453q0 -72 -10 -140q-15 -71 -80 -73q-25 0 -45 20q-25 19 -25 66v663q0 41 25 62q20 18 45 18q53 -2 73 -51q17 -51 17 -115v-450z
" />
    <glyph glyph-name="e" unicode="e" 
d="M80 346q0 -55 20 -119q19 -65 66 -123q49 -57 133 -92q82 -37 213 -39q131 2 217 39q86 35 133 92q25 29 41 62q16 31 25 61q16 64 16 119v139h-352v-163q0 -37 -8 -70q-13 -35 -72 -37q-55 2 -70 37q-12 33 -10 70v280h512v360q0 60 -16 125q-9 33 -25 64t-41 57
q-47 58 -133 92q-86 35 -217 35t-213 -35q-84 -34 -133 -92q-47 -55 -66 -121q-20 -65 -20 -125v-616zM432 987q-2 37 10 72q15 33 70 35q31 0 49 -9q16 -10 23 -26q8 -35 8 -72v-143h-160v143z" />
    <glyph glyph-name="f" unicode="f" horiz-adv-x="569" 
d="M23 1040h83v-1040h353v1040h88v254h-101v47q-4 64 66 66h35v229h-133q-62 0 -117 -4q-55 -6 -98 -31q-43 -22 -66 -73q-27 -51 -27 -140v-94h-83v-254z" />
    <glyph glyph-name="g" unicode="g" 
d="M944 1309h-342v-146h-4q-35 80 -88 127q-55 45 -150 45q-88 0 -143 -35q-57 -36 -86 -96q-31 -59 -39 -131q-12 -72 -12 -149v-486q2 -145 80 -227q73 -84 188 -84q178 0 242 156l4 -4v-232q-2 -88 -78 -90q-39 0 -57 16q-21 19 -21 68h-340q25 -162 146 -221
q118 -60 272 -58q219 0 326 86q102 86 102 306v1155zM432 973q0 59 25 80q24 16 47 16q33 0 59 -33q27 -39 29 -129v-340q0 -41 -10 -108q-7 -31 -25 -54q-18 -24 -53 -24q-68 -4 -72 96v496z" />
    <glyph glyph-name="h" unicode="h" 
d="M80 0h352v895q-2 29 10 76q15 47 70 49q31 0 49 -10q16 -13 23 -33q8 -43 8 -82v-895h352v1055q0 123 -61 200q-64 78 -191 80q-90 0 -151 -37q-60 -37 -105 -110h-4v448h-352v-1636z" />
    <glyph glyph-name="i" unicode="i" horiz-adv-x="569" 
d="M109 0h352v1309h-352v-1309zM109 1395h352v241h-352v-241z" />
    <glyph glyph-name="j" unicode="j" horiz-adv-x="569" 
d="M109 94q-3 -82 -68 -78q-18 0 -33 4v-245h172q94 0 152 28q55 29 82 78q30 49 39 115q8 65 8 139v1174h-352v-1215zM109 1395h352v241h-352v-241z" />
    <glyph glyph-name="k" unicode="k" 
d="M641 0h360l-211 735l205 574h-360l-193 -590zM80 0h352v1636h-352v-1636z" />
    <glyph glyph-name="l" unicode="l" horiz-adv-x="569" 
d="M109 0h352v1636h-352v-1636z" />
    <glyph glyph-name="m" unicode="m" horiz-adv-x="1593" 
d="M96 0h352v879q-2 30 13 83q8 25 26 41q17 17 47 17q64 -2 76 -51q10 -50 10 -90v-879h353v879q-2 30 12 83q8 25 27 41q16 17 47 17q63 -2 76 -51q10 -50 10 -90v-879h352v1055q0 125 -64 202q-65 76 -194 78q-117 0 -174 -49t-107 -139v0q-22 102 -90 147
q-65 41 -153 41q-105 0 -166 -49q-62 -49 -109 -139h-4v162h-340v-1309z" />
    <glyph glyph-name="n" unicode="n" 
d="M80 0h352v895q-2 29 10 76q15 47 70 49q31 0 49 -10q16 -13 23 -33q8 -43 8 -82v-895h352v1055q0 123 -61 200q-64 78 -191 80q-100 0 -160 -43q-61 -45 -108 -129h-4v146h-340v-1309z" />
    <glyph glyph-name="o" unicode="o" 
d="M80 346q0 -55 20 -119q19 -65 66 -123q49 -57 133 -92q82 -37 213 -39q131 2 217 39q86 35 133 92q25 29 41 62q16 31 25 61q16 64 16 119v616q0 60 -16 125q-9 33 -25 64t-41 57q-47 58 -133 92q-86 35 -217 35t-213 -35q-84 -34 -133 -92q-47 -55 -66 -121
q-20 -65 -20 -125v-616zM432 987q-2 37 10 72q15 33 70 35q31 0 49 -9q16 -10 23 -26q8 -35 8 -72v-665q0 -37 -8 -70q-13 -35 -72 -37q-55 2 -70 37q-12 33 -10 70v665z" />
    <glyph glyph-name="p" unicode="p" 
d="M80 -225h352v356h4q70 -156 246 -158q258 7 262 392v638q0 328 -256 332q-180 0 -252 -145h-4v119h-352v-1534zM432 903q-2 64 19 115q18 49 71 51q27 0 49 -18q21 -21 21 -62v-663q0 -47 -21 -66q-20 -20 -49 -20q-65 2 -78 73q-14 68 -12 140v450z" />
    <glyph glyph-name="q" unicode="q" 
d="M944 1309h-352v-119h-4q-39 76 -97 112q-61 33 -155 33q-256 -4 -256 -332v-638q2 -385 262 -392q176 2 246 158h4v-356h352v1534zM592 453q0 -72 -10 -140q-15 -71 -80 -73q-25 0 -45 20q-25 19 -25 66v663q0 41 25 62q20 18 45 18q53 -2 73 -51q17 -51 17 -115v-450z
" />
    <glyph glyph-name="r" unicode="r" horiz-adv-x="682" 
d="M80 0h352v743q0 70 35 119q33 45 121 47h82v426q-58 0 -99 -22q-39 -23 -67 -60q-27 -37 -47 -82q-21 -47 -39 -94h-4v232h-334v-1309z" />
    <glyph glyph-name="s" unicode="s" horiz-adv-x="909" 
d="M49 326q-2 -162 88 -256q88 -95 318 -97q143 2 227 47q82 43 121 107q39 63 49 127q8 63 8 104q-2 148 -74 238q-71 86 -168 151q-36 37 -77 68l-80 59q-37 31 -60 64q-24 31 -24 67q0 89 78 89q53 -2 67 -37q8 -37 8 -66v-69h316v69q-6 348 -391 344q-174 0 -283 -94
t-111 -283q2 -141 76 -231q72 -92 160 -158q90 -63 162 -121q71 -59 73 -137q0 -94 -77 -96q-54 0 -72 41q-21 37 -18 76v80h-316v-86z" />
    <glyph glyph-name="t" unicode="t" horiz-adv-x="569" 
d="M106 209q0 -76 23 -121q23 -47 59 -72q39 -24 88 -32q50 -11 105 -11h170v267h-45q-33 2 -41 39q-8 34 -6 61v700h88v254h-88v285h-353v-285h-88v-254h88v-831z" />
    <glyph glyph-name="u" unicode="u" 
d="M944 1309h-352v-895q0 -27 -8 -72q-7 -20 -23 -37q-18 -16 -49 -16q-55 2 -70 47q-6 18 -8 41q-2 22 -2 37v895h-352v-1055q0 -119 65 -199q62 -80 187 -82q100 2 162 45q63 43 106 127h4v-145h340v1309z" />
    <glyph glyph-name="v" unicode="v" horiz-adv-x="909" 
d="M248 0h411l240 1309h-352l-88 -838h-4l-82 838h-363z" />
    <glyph glyph-name="w" unicode="w" horiz-adv-x="1479" 
d="M274 0h371l88 870h4l101 -870h370l252 1309h-352l-113 -920h-4l-80 920h-329l-95 -920h-4l-98 920h-367z" />
    <glyph glyph-name="x" unicode="x" 
d="M25 0h378l109 395h4l98 -395h385l-282 678l272 631h-375l-92 -347h-4l-90 347h-387l278 -631z" />
    <glyph glyph-name="y" unicode="y" horiz-adv-x="909" 
d="M109 -238h163q113 0 183 23q67 18 106 59q78 82 109 267l229 1198h-346l-90 -920h-4l-88 920h-361l215 -1098q21 -96 23 -148q0 -26 -17 -36q-16 -11 -43 -11h-79v-254z" />
    <glyph glyph-name="z" unicode="z" horiz-adv-x="909" 
d="M63 1030h402l-414 -764v-266h807v279h-428l428 763v267h-795v-279z" />
    <glyph glyph-name="braceleft" unicode="{" horiz-adv-x="682" 
d="M692 -225v205h-84q-71 2 -90 47q-12 20 -14 45q-4 22 -4 41v376q0 74 -23 117q-24 43 -61 64q-37 20 -76 28q-41 6 -76 6v5q72 0 152 43q37 22 61 61q23 37 23 94v391q-2 45 18 88q19 43 90 45h84v205h-231q-117 0 -193 -69q-82 -74 -84 -236v-373q-4 -94 -73 -120
q-68 -27 -121 -25v-217q53 2 121 -23q69 -26 73 -122v-373q2 -162 84 -232q76 -71 193 -71h231z" />
    <glyph glyph-name="bar" unicode="|" horiz-adv-x="455" 
d="M82 -512h291v2048h-291v-2048z" />
    <glyph glyph-name="braceright" unicode="}" horiz-adv-x="682" 
d="M-10 -225h233q117 0 197 71q78 70 80 232v373q0 49 24 79q21 29 51 43q68 25 117 23v217q-49 -2 -117 25q-71 26 -75 120v373q-2 162 -80 236q-80 69 -197 69h-233v-205h86q73 -2 92 -45q16 -43 16 -88v-391q4 -57 29 -94q23 -39 59 -61q37 -21 78 -31q39 -8 70 -12v-5
q-31 0 -70 -6q-41 -8 -78 -28q-36 -21 -59 -64q-25 -43 -29 -117v-376q0 -43 -16 -86q-19 -45 -92 -47h-86v-205z" />
    <glyph glyph-name="asciitilde" unicode="~" horiz-adv-x="1229" 
d="M1014 891v0q-33 -55 -76 -101q-43 -51 -105 -51q-40 0 -94 29q-55 22 -114 49q-60 29 -115 47q-59 19 -113 19q-100 -2 -161 -56q-62 -53 -95 -120l74 -267v0q25 60 66 105q38 45 106 47q72 0 129 -23q57 -22 107 -53q51 -29 102 -47q51 -21 106 -21q95 0 154 58
q31 26 57 57q25 31 45 62z" />
    <glyph glyph-name="Euro" 
d="M143 549h-163l61 180h102v160h-163l61 180h102v94q0 37 3.5 80t16.5 88t36.5 90t64.5 86q40 41 85 66t90.5 39t90 19t84.5 5q22 0 51 -1t61.5 -5.5t66.5 -12.5t67 -22q51 -20 85 -47.5t59 -62.5l-103 -285q-11 29 -34 61t-68 60q-32 20 -67.5 28.5t-74.5 8.5
q-15 0 -32 -2.5t-34.5 -9t-33 -19t-27.5 -31.5q-8 -15 -12.5 -32t-6.5 -35t-2.5 -35t-0.5 -31v-94h356l-61 -180h-295v-160h256l-62 -180h-194v-103v-31t3 -35.5t9.5 -37t18.5 -35.5q24 -35 55.5 -45t62.5 -10q28 0 71.5 7.5t98.5 33.5q29 14 54 29.5t45 30.5t34.5 27.5
t22.5 20.5v-319q-28 -22 -61.5 -40t-81.5 -34q-25 -8 -83.5 -21.5t-142.5 -13.5q-91 0 -173.5 24.5t-151.5 86.5q-45 41 -73.5 86.5t-44.5 92.5t-22 93.5t-6 89.5v103z" />
    <glyph glyph-name="Euro" unicode="&#x20ac;" 
d="M143 549h-163l61 180h102v160h-163l61 180h102v94q0 37 3.5 80t16.5 88t36.5 90t64.5 86q40 41 85 66t90.5 39t90 19t84.5 5q22 0 51 -1t61.5 -5.5t66.5 -12.5t67 -22q51 -20 85 -47.5t59 -62.5l-103 -285q-11 29 -34 61t-68 60q-32 20 -67.5 28.5t-74.5 8.5
q-15 0 -32 -2.5t-34.5 -9t-33 -19t-27.5 -31.5q-8 -15 -12.5 -32t-6.5 -35t-2.5 -35t-0.5 -31v-94h356l-61 -180h-295v-160h256l-62 -180h-194v-103v-31t3 -35.5t9.5 -37t18.5 -35.5q24 -35 55.5 -45t62.5 -10q28 0 71.5 7.5t98.5 33.5q29 14 54 29.5t45 30.5t34.5 27.5
t22.5 20.5v-319q-28 -22 -61.5 -40t-81.5 -34q-25 -8 -83.5 -21.5t-142.5 -13.5q-91 0 -173.5 24.5t-151.5 86.5q-45 41 -73.5 86.5t-44.5 92.5t-22 93.5t-6 89.5v103z" />
    <glyph glyph-name="quotesinglbase" unicode="&#x201a;" horiz-adv-x="569" 
d="M442 352h-315v-352h154q-15 -70 -58 -123q-45 -53 -94 -102h166q55 57 100 127q45 67 47 151v299z" />
    <glyph glyph-name="florin" unicode="&#x192;" 
d="M190 885h181l-119 -635q-27 -141 -57 -195q-29 -53 -72 -51q-45 0 -76 10l-37 -239q99 -13 219 -13q281 -4 359 476l114 647h187l39 229h-185l29 127q21 96 45 127q23 27 78 27q47 0 74 -9l45 240q-109 10 -215 10q-187 -2 -262 -112q-39 -54 -64 -121q-25 -70 -39 -154
l-22 -135h-185z" />
    <glyph glyph-name="quotedblbase" unicode="&#x201e;" 
d="M881 352h-316v-352h154q-15 -70 -58 -123q-45 -53 -94 -102h166q55 57 100 127q46 67 48 151v299zM459 352h-316v-352h154q-14 -70 -57 -123q-45 -53 -95 -102h166q56 57 101 127q45 67 47 151v299z" />
    <glyph glyph-name="ellipsis" unicode="&#x2026;" horiz-adv-x="2048" 
d="M512 0v377h-340v-377h340zM1194 0v377h-340v-377h340zM1876 0v377h-340v-377h340z" />
    <glyph glyph-name="dagger" unicode="&#x2020;" 
d="M84 909h264v-1114h328v1114h264v266h-264v461h-328v-461h-264v-266z" />
    <glyph glyph-name="daggerdbl" unicode="&#x2021;" 
d="M84 938h264v-451h-264v-266h264v-426h328v426h264v266h-264v451h264v266h-264v432h-328v-432h-264v-266z" />
    <glyph glyph-name="circumflex" unicode="&#x2c6;" horiz-adv-x="569" 
d="M182 1425l103 156v0l90 -156h213l-148 279h-288l-170 -279h200z" />
    <glyph glyph-name="perthousand" unicode="&#x2030;" horiz-adv-x="2048" 
d="M1046 559q0 27 11 49q8 23 43 25q37 -2 47 -25q6 -22 6 -49v-344q0 -27 -6 -49q-10 -25 -47 -25q-35 0 -43 25q-11 22 -11 49v344zM829 215q2 -135 82 -188q39 -27 88 -39q47 -15 101 -15q114 0 190 54q78 53 80 188v344q-2 139 -80 193q-76 51 -190 49q-111 2 -189 -49
q-80 -54 -82 -193v-344zM1479 215q2 -135 81 -188q39 -27 89 -39q47 -15 100 -15q115 0 190 54q78 53 80 188v344q-2 139 -80 193q-75 51 -190 49q-111 2 -189 -49q-79 -54 -81 -193v-344zM1696 559q0 27 10 49q8 23 43 25q37 -2 47 -25q6 -22 6 -49v-344q0 -27 -6 -49
q-10 -25 -47 -25q-35 0 -43 25q-10 22 -10 49v344zM301 -53h201l573 1716h-196zM246 1395q0 26 10 49q8 22 43 24q37 -2 47 -24q6 -23 6 -49v-344q0 -27 -6 -50q-10 -24 -47 -24q-35 0 -43 24q-10 23 -10 50v344zM29 1051q2 -136 82 -189q38 -26 88 -39q47 -14 100 -14
q115 -2 190 53q78 53 80 189v344q-2 139 -80 192q-75 51 -190 49q-111 2 -188 -49q-80 -53 -82 -192v-344z" />
    <glyph glyph-name="Scaron" unicode="&#x160;" horiz-adv-x="1139" 
d="M70 555v-176q0 -62 24 -131q25 -72 80 -133q57 -62 152 -101q94 -39 231 -41q147 2 248 45q100 41 157 107q58 65 84 137q23 70 23 129q0 125 -27 207q-28 82 -75 139q-48 58 -101 101q-57 41 -110 86q-119 86 -213 170q-43 43 -72 81q-29 37 -29 74q2 121 129 123
q78 -2 101 -59q20 -56 18 -121v-88h352v147q4 404 -471 412q-475 6 -481 -459q0 -90 29 -158q24 -69 67 -120q43 -52 99 -95l108 -92q119 -78 207 -159q90 -82 92 -189q0 -53 -33 -88q-32 -39 -98 -39q-78 0 -102 53q-27 50 -25 117v121h-364zM419 1734h289l161 279h-198
l-98 -150v0l-91 150h-198z" />
    <glyph glyph-name="guilsinglleft" unicode="&#x2039;" horiz-adv-x="682" 
d="M571 383l-206 297l212 289h-266l-207 -289l201 -297h266z" />
    <glyph glyph-name="OE" unicode="&#x152;" horiz-adv-x="1593" 
d="M84 446q8 -462 485 -473q90 2 138 15q49 12 141 12h661v315h-467v365h402v315h-402v326h457v315h-723q-41 0 -98 15q-53 10 -109 12q-213 0 -346 -115q-137 -119 -139 -358v-744zM461 1223q-2 47 14 96q19 51 94 53q43 0 66 -12q22 -17 31 -41q14 -49 12 -96v-809
q2 -35 -12 -90q-9 -25 -31 -41q-23 -19 -66 -19q-75 2 -94 60q-8 26 -12 51q-2 22 -2 39v809z" />
    <glyph glyph-name="quoteleft" unicode="&#x2018;" horiz-adv-x="569" 
d="M127 1059h315v352h-153q16 74 61 127q43 53 90 98h-166l-51 -55q-24 -31 -47 -66q-47 -67 -49 -153v-303z" />
    <glyph glyph-name="quoteright" unicode="&#x2019;" horiz-adv-x="569" 
d="M442 1636h-315v-352h154q-15 -70 -58 -123q-45 -53 -94 -102h166q55 57 100 127q45 67 47 151v299z" />
    <glyph glyph-name="quotedblleft" unicode="&#x201c;" 
d="M459 1059v356h-154q17 70 62 125q43 51 90 96h-166l-51 -55q-25 -31 -48 -66q-47 -67 -49 -153v-303h316zM881 1059v352h-154q16 74 61 127q43 53 91 98h-166l-52 -55q-24 -31 -47 -66q-47 -67 -49 -153v-303h316z" />
    <glyph glyph-name="quotedblright" unicode="&#x201d;" 
d="M881 1636h-316v-352h154q-15 -70 -58 -123q-45 -53 -94 -102h166q55 57 100 127q46 67 48 151v299zM459 1636h-316v-352h154q-14 -70 -57 -123q-45 -53 -95 -102h166q56 57 101 127q45 67 47 151v299z" />
    <glyph glyph-name="bullet" unicode="&#x2022;" 
d="M102 819q2 -174 121 -289q115 -118 289 -120q174 2 291 120q116 115 119 289q-3 176 -119 291q-117 117 -291 119q-174 -2 -289 -119q-119 -115 -121 -291v0z" />
    <glyph glyph-name="endash" unicode="&#x2013;" 
d="M0 553h1024v254h-1024v-254z" />
    <glyph glyph-name="emdash" unicode="&#x2014;" horiz-adv-x="2048" 
d="M0 553h2048v254h-2048v-254z" />
    <glyph glyph-name="tilde" unicode="&#x2dc;" horiz-adv-x="569" 
d="M520 1696v0q-12 -35 -41 -58q-28 -24 -69 -24q-52 2 -117 37q-66 30 -139 32q-82 -2 -129 -67q-23 -31 -41 -66q-19 -37 -33 -71l98 -37q17 26 43 49q27 22 57 24q62 -2 115 -32q49 -33 121 -35q96 0 149 63q29 29 50 66q18 37 34 76z" />
    <glyph glyph-name="trademark" unicode="&#x2122;" horiz-adv-x="2048" 
d="M350 793h254v651h225v192h-706v-192h227v-651zM913 793h230v552h4l182 -552h180l183 552h4v-552h229v843h-324l-182 -489v0l-182 489h-324v-843z" />
    <glyph glyph-name="scaron" unicode="&#x161;" horiz-adv-x="909" 
d="M49 326q-2 -162 88 -256q88 -95 318 -97q143 2 227 47q82 43 121 107q39 63 49 127q8 63 8 104q-2 148 -74 238q-71 86 -168 151q-36 37 -77 68l-80 59q-37 31 -60 64q-24 31 -24 67q0 89 78 89q53 -2 67 -37q8 -37 8 -66v-69h316v69q-6 348 -391 344q-174 0 -283 -94
t-111 -283q2 -141 76 -231q72 -92 160 -158q90 -63 162 -121q71 -59 73 -137q0 -94 -77 -96q-54 0 -72 41q-21 37 -18 76v80h-316v-86zM299 1408h289l161 279h-198l-98 -150v0l-91 150h-198z" />
    <glyph glyph-name="guilsinglright" unicode="&#x203a;" horiz-adv-x="682" 
d="M109 383h266l202 297l-206 289h-267l211 -289z" />
    <glyph glyph-name="oe" unicode="&#x153;" horiz-adv-x="1479" 
d="M922 987q-3 37 10 72q14 33 69 35q31 0 50 -9q16 -10 22 -26q8 -35 8 -72v-143h-159v143zM70 346q0 -55 20 -119q19 -65 66 -123q49 -57 133 -92q82 -37 213 -39q45 0 110 19q64 18 121 71v0q60 -45 129 -67q66 -23 164 -23q156 0 268 70q113 72 115 242v200h-328v-168
q-2 -102 -69 -102q-35 -2 -62 18q-28 17 -28 74v295h487v416q-6 166 -117 243q-110 74 -246 74q-86 0 -149 -20q-66 -21 -133 -74v0q-121 94 -262 94q-131 0 -213 -35q-84 -34 -133 -92q-47 -55 -66 -121q-20 -65 -20 -125v-616zM422 987q-2 37 10 72q14 33 70 35
q30 0 49 -9q16 -10 22 -26q9 -35 9 -72v-665q0 -37 -9 -70q-12 -35 -71 -37q-56 2 -70 37q-12 33 -10 70v665z" />
    <glyph glyph-name="Ydieresis" unicode="&#x178;" 
d="M324 647v-647h376v674l308 962h-383l-111 -553h-4l-105 553h-389zM799 1747v266h-229v-266h229zM467 1747v266h-229v-266h229z" />
    <glyph glyph-name="nonbreakingspace" unicode="&#xa0;" horiz-adv-x="512" 
 />
    <glyph glyph-name="exclamdown" unicode="&#xa1;" horiz-adv-x="684" 
d="M512 1411h-340v-377h340v377zM512 -225v639l-78 524h-184l-78 -524v-639h340z" />
    <glyph glyph-name="cent" unicode="&#xa2;" 
d="M80 346q0 -158 94 -250q90 -94 246 -123v-159h180v159q41 9 100 29q58 18 111 57q57 43 96 113q35 68 37 174v211h-352v-235q0 -37 -8 -70q-13 -35 -72 -37q-55 2 -70 37q-12 33 -10 70v665q-2 37 10 72q15 33 70 35q31 0 49 -9q16 -10 23 -26q8 -35 8 -72v-164h352v139
q-2 109 -37 179q-39 69 -96 108q-53 43 -111 64q-59 18 -100 22v160h-180v-160q-156 -26 -246 -123q-94 -92 -94 -250v-616z" />
    <glyph glyph-name="sterling" unicode="&#xa3;" 
d="M41 676h184q8 -37 8 -78q0 -94 -32 -182q-35 -90 -135 -121l-15 -311q86 43 185 43q94 -2 192 -25q98 -27 201 -29q346 7 354 351v88h-303q0 -41 -19 -88q-20 -54 -77 -56q-45 0 -97 13q-55 8 -122 8q165 164 172 387h249v180h-268q-24 102 -51 197q-33 94 -33 192
q0 51 23 82q22 31 73 31q70 -2 88 -56q15 -51 15 -98v-67h327v79q2 414 -430 420q-184 0 -319 -92q-139 -96 -141 -307q0 -109 30 -197q29 -90 76 -184h-135v-180z" />
    <glyph glyph-name="currency" unicode="&#xa4;" 
d="M152 362v0l100 99v0q113 -82 260 -82q154 2 264 86v0l96 -94v0l103 102l-96 94q83 113 86 264q-3 150 -86 263l96 94l-103 102v0l-94 -94v0q-112 84 -266 86q-154 -2 -266 -86v0l-94 94v0l-103 -102l94 -94q-84 -117 -84 -263q0 -155 88 -268l-98 -98zM301 831
q0 107 64 170q57 64 147 64q92 0 152 -64q57 -63 59 -170q-2 -104 -59 -167q-60 -68 -152 -68q-90 0 -147 68q-64 63 -64 167v0z" />
    <glyph glyph-name="yen" unicode="&#xa5;" 
d="M49 723h260l21 -103v-57h-281v-180h281v-383h364v383h285v180h-285v84l21 76h264v180h-205l209 707h-356l-113 -553h-4l-92 553h-377l213 -707h-205v-180z" />
    <glyph glyph-name="brokenbar" unicode="&#xa6;" horiz-adv-x="455" 
d="M82 -358h291v716h-291v-716zM82 768h291v614h-291v-614z" />
    <glyph glyph-name="section" unicode="&#xa7;" 
d="M704 637q0 -27 -16 -49q-16 -27 -35 -37q-43 37 -100 69l-115 68q-53 35 -90 68q-41 30 -41 65q0 31 17 58q12 24 28 49v0q49 -39 133 -92q84 -54 135 -84q37 -19 62 -48q22 -26 22 -67v0zM924 1253q2 412 -404 410q-170 -2 -280 -98q-115 -99 -117 -279q2 -78 35 -139
q30 -66 47 -68v-4q-148 -113 -152 -295q2 -168 90 -264q84 -94 193 -154q108 -55 192 -106q41 -27 64 -57q22 -33 22 -76q-2 -103 -100 -107q-57 2 -78 56q-20 51 -20 94v39h-316q4 -410 416 -410q180 0 295 96q117 93 119 277q0 135 -94 237q133 125 135 308
q-2 145 -84 231q-80 84 -187 141l-96 58q-49 28 -90 55q-86 53 -88 135q0 41 27 70q24 28 61 30q57 -2 78 -34q16 -35 16 -84v-62h316z" />
    <glyph glyph-name="dieresis" unicode="&#xa8;" horiz-adv-x="569" 
d="M565 1438v266h-229v-266h229zM233 1438v266h-229v-266h229z" />
    <glyph glyph-name="copyright" unicode="&#xa9;" horiz-adv-x="1802" 
d="M901 -27q377 4 623 236q249 227 254 608q-5 383 -254 612q-246 230 -623 234q-377 -4 -622 -234q-250 -229 -254 -612q4 -381 256 -608q245 -232 620 -236v0zM901 215q-266 2 -434 174q-174 166 -176 428q2 266 174 434q168 168 436 170q268 -4 436 -172
q170 -168 174 -432q-4 -260 -174 -428q-168 -172 -436 -174v0zM1126 696q-8 -76 -59 -112q-55 -39 -131 -39q-51 0 -92 28q-43 27 -70 68q-57 90 -57 188q0 125 59 201q57 76 154 78q75 0 129 -31q51 -33 67 -110h205q-61 340 -401 346q-215 -2 -338 -135
q-127 -134 -129 -353q2 -213 133 -346q127 -137 340 -139q342 8 403 356h-213z" />
    <glyph glyph-name="ordfeminine" unicode="&#xaa;" horiz-adv-x="666" 
d="M625 1390q2 130 -62 189q-67 57 -233 57q-123 0 -199 -45q-82 -47 -82 -145v-76h217v55q0 54 64 56q63 2 65 -66q-2 -55 -55 -78q-55 -24 -125 -47q-63 -22 -117 -72q-24 -26 -41 -65q-16 -39 -16 -94q0 -47 6 -88q6 -43 23 -78q28 -72 147 -74q123 0 182 76h4v-59h222
v554zM395 1231v-213q0 -23 -16 -41q-19 -23 -55 -23q-21 -2 -37 6q-17 9 -17 43v113q0 27 9 41q18 23 116 74v0z" />
    <glyph glyph-name="guillemotleft" unicode="&#xab;" 
d="M557 383l-207 297l213 289h-266l-207 -289l201 -297h266zM928 383l-207 297l213 289h-268l-205 -289l200 -297h267z" />
    <glyph glyph-name="logicalnot" unicode="&#xac;" horiz-adv-x="1229" 
d="M842 393h290v672h-1036v-291h746v-381z" />
    <glyph glyph-name="uni00AD" unicode="&#xad;" horiz-adv-x="682" 
d="M72 541h538v303h-538v-303z" />
    <glyph glyph-name="registered" unicode="&#xae;" horiz-adv-x="1802" 
d="M772 750h39l209 -388h264l-233 396q94 4 157 61q60 53 62 178q0 164 -101 221q-100 56 -282 54h-344v-910h229v388zM772 905v211h111q55 0 100 -14q43 -17 45 -82q0 -70 -31 -92q-32 -23 -94 -23h-131zM901 -27q377 4 623 236q249 227 254 608q-5 383 -254 612
q-246 230 -623 234q-377 -4 -622 -234q-250 -229 -254 -612q4 -381 256 -608q245 -232 620 -236v0zM901 215q-266 2 -434 174q-174 166 -176 428q2 266 174 434q168 168 436 170q268 -4 436 -172q170 -168 174 -432q-4 -260 -174 -428q-168 -172 -436 -174v0z" />
    <glyph glyph-name="macron" unicode="&#xaf;" horiz-adv-x="569" 
d="M-16 1454h602v156h-602v-156z" />
    <glyph glyph-name="degree" unicode="&#xb0;" horiz-adv-x="819" 
d="M750 1309q-3 139 -97 231q-96 94 -243 96q-148 -2 -242 -96q-96 -92 -98 -231q2 -140 98 -232q94 -94 242 -96q147 2 243 96q94 92 97 232v0zM410 1493q77 -2 124 -53q48 -52 48 -131q0 -76 -48 -127q-47 -58 -124 -58q-76 0 -123 58q-49 51 -49 127q0 79 49 131
q47 51 123 53v0z" />
    <glyph glyph-name="plusminus" unicode="&#xb1;" horiz-adv-x="1229" 
d="M469 999h-373v-290h373v-209h291v209h372v290h-372v209h-291v-209zM96 123h1036v291h-1036v-291z" />
    <glyph glyph-name="twosuperior" unicode="&#xb2;" horiz-adv-x="666" 
d="M41 1284h229v94q-2 35 13 64q12 26 53 26t55 -26q8 -29 8 -64q-2 -88 -53 -147q-55 -60 -125 -119q-72 -59 -127 -150q-57 -92 -69 -247v-60h604v181h-359q4 14 13 30l12 25q47 69 106 123l111 98q57 49 92 113q35 63 37 155q-6 256 -291 256q-160 0 -231 -65
q-72 -70 -78 -213v-74z" />
    <glyph glyph-name="threesuperior" unicode="&#xb3;" horiz-adv-x="666" 
d="M33 889q6 -252 299 -250q172 0 239 86q64 84 62 235q0 74 -23 134q-28 59 -108 86q75 34 100 90q23 53 23 123q-2 137 -80 192q-78 51 -213 51q-172 0 -238 -78q-67 -79 -57 -225h229v66q-2 71 62 69q39 0 49 -18q6 -19 6 -47v-80q-2 -37 -31 -55q-30 -21 -69 -21h-41
v-155q92 2 123 -29q26 -31 26 -115v-67q0 -29 -12 -50q-14 -24 -51 -24t-52 24q-14 21 -14 50v98h-229v-90z" />
    <glyph glyph-name="acute" unicode="&#xb4;" horiz-adv-x="569" 
d="M149 1425h197l217 279h-317z" />
    <glyph glyph-name="mu" unicode="&#xb5;" 
d="M944 1309h-352v-895q0 -27 -8 -72q-7 -20 -23 -37q-18 -16 -49 -16q-55 2 -70 47q-6 18 -8 41q-2 22 -2 37v895h-352v-1534h340v211q63 14 108 63q43 45 72 96h4v-145h340v1309z" />
    <glyph glyph-name="paragraph" unicode="&#xb6;" horiz-adv-x="1270" 
d="M422 -178h242v1622h206v-1622h242v1814h-643q-217 2 -356 -69q-146 -78 -148 -295q4 -346 457 -350v-1100z" />
    <glyph glyph-name="periodcentered" unicode="&#xb7;" horiz-adv-x="512" 
d="M444 672q-2 82 -53 135q-53 51 -135 53q-80 -2 -131 -53q-57 -53 -57 -135q0 -80 57 -131q51 -58 131 -58q82 0 135 58q51 51 53 131v0z" />
    <glyph glyph-name="periodcentered" unicode="&#x2219;" horiz-adv-x="512" 
d="M444 672q-2 82 -53 135q-53 51 -135 53q-80 -2 -131 -53q-57 -53 -57 -135q0 -80 57 -131q51 -58 131 -58q82 0 135 58q51 51 53 131v0z" />
    <glyph glyph-name="cedilla" unicode="&#xb8;" horiz-adv-x="569" 
d="M223 0l-117 -152l46 -38q38 16 81 16q89 0 89 -80q-3 -41 -33 -55q-33 -15 -72 -15q-86 3 -168 37l-39 -55q60 -25 133 -43q72 -18 142 -20q75 0 151 32q76 33 78 131q-2 78 -49 121q-47 41 -125 41q-45 2 -82 -10h-4l82 90h-113z" />
    <glyph glyph-name="onesuperior" unicode="&#xb9;" horiz-adv-x="666" 
d="M55 1378h168v-723h254v965h-225q-21 -55 -80 -82q-57 -29 -117 -29v-131z" />
    <glyph glyph-name="ordmasculine" unicode="&#xba;" horiz-adv-x="666" 
d="M41 1046q0 -67 29 -110q26 -45 69 -70q43 -24 97 -35q49 -12 96 -12q49 0 102 12q51 11 94 35q43 25 72 70q25 43 25 110v363q0 70 -25 115q-29 45 -72 69q-92 45 -196 43q-101 2 -193 -43q-43 -24 -69 -69q-29 -45 -29 -115v-363zM270 1409q-2 70 62 72q65 -2 63 -72
v-363q2 -69 -63 -71q-64 2 -62 71v363z" />
    <glyph glyph-name="guillemotright" unicode="&#xbb;" 
d="M94 383h266l203 297l-207 289h-266l211 -289zM465 383h266l203 297l-207 289h-266l211 -289z" />
    <glyph glyph-name="onequarter" unicode="&#xbc;" horiz-adv-x="1536" 
d="M186 -53h209l856 1716h-209zM0 1378h168v-723h254v965h-225q-21 -55 -80 -82q-58 -29 -117 -29v-131zM895 178h307v-178h254v178h80v180h-80v414h-102q-15 -70 -56 -147q-41 -80 -96 -138v-129h-160l172 289q74 131 93 320h-254q-23 -306 -158 -582v-207z" />
    <glyph glyph-name="onehalf" unicode="&#xbd;" horiz-adv-x="1536" 
d="M160 -53h209l856 1716h-209zM0 1378h168v-723h254v965h-225q-21 -55 -80 -82q-58 -29 -117 -29v-131zM936 629h229v94q-2 35 13 63q12 27 53 27t55 -27q8 -28 8 -63q-2 -88 -53 -148q-55 -59 -125 -118q-72 -60 -127 -150q-57 -92 -70 -248v-59h605v180h-359q6 19 13 29
q4 14 12 27q47 69 106 122l111 99q57 49 92 112q35 64 37 156q-6 256 -291 256q-160 0 -231 -66q-72 -69 -78 -213v-73z" />
    <glyph glyph-name="threequarters" unicode="&#xbe;" horiz-adv-x="1536" 
d="M250 -53h209l856 1716h-209zM0 889q6 -252 299 -250q172 0 240 86q63 84 61 235q0 74 -23 134q-28 59 -108 86q76 34 100 90q23 53 23 123q-2 137 -80 192q-78 51 -213 51q-172 0 -238 -78q-67 -79 -57 -225h229v66q-2 71 62 69q39 0 49 -18q6 -19 6 -47v-80
q-2 -37 -31 -55q-30 -21 -69 -21h-41v-155q92 2 123 -29q26 -31 26 -115v-67q0 -29 -12 -50q-14 -24 -51 -24t-51 24q-15 21 -15 50v98h-229v-90zM895 184h307v-178h254v178h80v181h-80v413h-102q-15 -69 -56 -147q-41 -80 -96 -137v-129h-160l172 288q74 131 93 320h-254
q-23 -305 -158 -582v-207z" />
    <glyph glyph-name="questiondown" unicode="&#xbf;" 
d="M469 938q-2 -133 -64 -225q-61 -93 -145 -170l-76 -80q-37 -41 -67 -90q-66 -92 -68 -230q0 -204 125 -299q123 -96 328 -96q211 2 327 115q115 110 117 293v137h-315v-113q0 -78 -25 -133q-26 -55 -90 -57q-72 2 -94 53q-23 49 -21 115q2 94 56 166q49 71 112 143
q68 74 115 164q49 88 51 215v92h-266zM762 1034v377h-340v-377h340z" />
    <glyph glyph-name="Agrave" unicode="&#xc0;" horiz-adv-x="1139" 
d="M14 0h377l39 291h264l35 -291h395l-307 1636h-500zM565 1382h4l88 -800h-188zM298 2013l223 -279h191l-90 279h-324z" />
    <glyph glyph-name="Aacute" unicode="&#xc1;" horiz-adv-x="1139" 
d="M14 0h377l39 291h264l35 -291h395l-307 1636h-500zM565 1382h4l88 -800h-188zM447 1734h197l217 279h-317z" />
    <glyph glyph-name="Acircumflex" unicode="&#xc2;" horiz-adv-x="1139" 
d="M14 0h377l39 291h264l35 -291h395l-307 1636h-500zM565 1382h4l88 -800h-188zM474 1734l103 156v0l90 -156h213l-148 279h-288l-170 -279h200z" />
    <glyph glyph-name="Atilde" unicode="&#xc3;" horiz-adv-x="1139" 
d="M14 0h377l39 291h264l35 -291h395l-307 1636h-500zM565 1382h4l88 -800h-188zM811 2005v0q-12 -35 -41 -58q-28 -24 -69 -24q-52 2 -117 37q-66 30 -139 32q-82 -2 -129 -67q-23 -31 -41 -66q-19 -37 -33 -71l98 -37q17 26 43 49q27 22 57 24q62 -2 115 -32
q49 -33 121 -35q96 0 149 63q29 29 50 66q18 37 34 76z" />
    <glyph glyph-name="Adieresis" unicode="&#xc4;" horiz-adv-x="1139" 
d="M14 0h377l39 291h264l35 -291h395l-307 1636h-500zM565 1382h4l88 -800h-188zM857 1747v266h-229v-266h229zM525 1747v266h-229v-266h229z" />
    <glyph glyph-name="Aring" unicode="&#xc5;" horiz-adv-x="1139" 
d="M14 0h377l39 291h264l35 -291h395l-307 1636h-500zM565 1382h4l88 -800h-188zM580 1684q88 0 161 40q74 39 76 134q-2 94 -78 133q-75 37 -159 37q-82 0 -158 -37q-37 -19 -59 -51q-25 -33 -25 -82q0 -50 25 -82q22 -33 59 -56q76 -39 158 -36v0zM580 1933q43 0 86 -10
q43 -12 45 -65q-2 -50 -45 -64q-43 -16 -86 -16q-43 -2 -86 14q-47 14 -49 66q2 51 51 65q43 10 84 10v0z" />
    <glyph glyph-name="AE" unicode="&#xc6;" horiz-adv-x="1593" 
d="M-29 0h381l74 315h266v-315h817v315h-452v365h401v315h-401v326h438v315h-1108zM682 1407h10v-789h-194z" />
    <glyph glyph-name="Ccedilla" unicode="&#xc7;" horiz-adv-x="1139" 
d="M598 -25q448 33 457 471v207h-377v-239q2 -35 -12 -90q-9 -25 -31 -41q-23 -19 -66 -19q-75 2 -94 60q-8 26 -12 51q-2 22 -2 39v809q-2 47 14 96q19 51 94 53q43 0 66 -12q22 -17 31 -41q14 -49 12 -96v-185h377v152q-2 239 -138 358q-133 115 -348 115
q-213 0 -346 -115q-137 -119 -139 -358v-744q6 -409 407 -466l-100 -132l45 -38q39 16 82 16q88 0 88 -80q-2 -41 -33 -55q-32 -15 -71 -15q-86 3 -168 37l-39 -55q59 -25 133 -43q72 -18 141 -20q76 0 152 32q76 33 78 131q-2 78 -49 121q-48 41 -125 41q-45 2 -82 -10h-4z
" />
    <glyph glyph-name="Egrave" unicode="&#xc8;" 
d="M84 0h856v315h-479v365h403v315h-403v326h461v315h-838v-1636zM237 2013l223 -279h191l-90 279h-324z" />
    <glyph glyph-name="Eacute" unicode="&#xc9;" 
d="M84 0h856v315h-479v365h403v315h-403v326h461v315h-838v-1636zM386 1734h197l217 279h-317z" />
    <glyph glyph-name="Ecircumflex" unicode="&#xca;" 
d="M84 0h856v315h-479v365h403v315h-403v326h461v315h-838v-1636zM413 1734l103 156v0l90 -156h213l-148 279h-288l-170 -279h200z" />
    <glyph glyph-name="Edieresis" unicode="&#xcb;" 
d="M84 0h856v315h-479v365h403v315h-403v326h461v315h-838v-1636zM796 1747v266h-229v-266h229zM464 1747v266h-229v-266h229z" />
    <glyph glyph-name="Igrave" unicode="&#xcc;" horiz-adv-x="569" 
d="M96 0h377v1636h-377v-1636zM4 2013l223 -279h191l-90 279h-324z" />
    <glyph glyph-name="Iacute" unicode="&#xcd;" horiz-adv-x="569" 
d="M96 0h377v1636h-377v-1636zM150 1734h197l217 279h-317z" />
    <glyph glyph-name="Icircumflex" unicode="&#xce;" horiz-adv-x="569" 
d="M96 0h377v1636h-377v-1636zM178 1734l103 156v0l90 -156h213l-148 279h-288l-170 -279h200z" />
    <glyph glyph-name="Idieresis" unicode="&#xcf;" horiz-adv-x="569" 
d="M96 0h377v1636h-377v-1636zM563 1747v266h-229v-266h229zM231 1747v266h-229v-266h229z" />
    <glyph glyph-name="Eth" unicode="&#xd0;" horiz-adv-x="1139" 
d="M84 0h561q158 0 281 98q125 101 129 322v778q2 195 -82 315q-90 121 -328 123h-561v-633h-78v-253h78v-750zM461 1358h59q156 0 158 -140v-819q0 -53 -39 -84q-39 -36 -111 -36h-67v471h114v253h-114v355z" />
    <glyph glyph-name="Ntilde" unicode="&#xd1;" horiz-adv-x="1251" 
d="M84 0h364v1012h5l305 -1012h409v1636h-364v-964h-4l-303 964h-412v-1636zM869 2005v0q-12 -35 -41 -58q-28 -24 -69 -24q-52 2 -117 37q-66 30 -139 32q-82 -2 -129 -67q-23 -31 -41 -66q-19 -37 -33 -71l98 -37q17 26 43 49q27 22 57 24q62 -2 115 -32q49 -33 121 -35
q96 0 149 63q29 29 50 66q18 37 34 76z" />
    <glyph glyph-name="Ograve" unicode="&#xd2;" horiz-adv-x="1139" 
d="M461 1223q-2 47 14 96q19 51 94 53q43 0 66 -12q22 -17 31 -41q14 -49 12 -96v-809q2 -35 -12 -90q-9 -25 -31 -41q-23 -19 -66 -19q-75 2 -94 60q-8 26 -12 51q-2 22 -2 39v809zM84 446q8 -462 485 -473q475 11 486 473v744q-2 239 -138 358q-133 115 -348 115
q-213 0 -346 -115q-137 -119 -139 -358v-744zM298 2013l223 -279h191l-90 279h-324z" />
    <glyph glyph-name="Oacute" unicode="&#xd3;" horiz-adv-x="1139" 
d="M461 1223q-2 47 14 96q19 51 94 53q43 0 66 -12q22 -17 31 -41q14 -49 12 -96v-809q2 -35 -12 -90q-9 -25 -31 -41q-23 -19 -66 -19q-75 2 -94 60q-8 26 -12 51q-2 22 -2 39v809zM84 446q8 -462 485 -473q475 11 486 473v744q-2 239 -138 358q-133 115 -348 115
q-213 0 -346 -115q-137 -119 -139 -358v-744zM445 1734h197l217 279h-317z" />
    <glyph glyph-name="Ocircumflex" unicode="&#xd4;" horiz-adv-x="1139" 
d="M461 1223q-2 47 14 96q19 51 94 53q43 0 66 -12q22 -17 31 -41q14 -49 12 -96v-809q2 -35 -12 -90q-9 -25 -31 -41q-23 -19 -66 -19q-75 2 -94 60q-8 26 -12 51q-2 22 -2 39v809zM84 446q8 -462 485 -473q475 11 486 473v744q-2 239 -138 358q-133 115 -348 115
q-213 0 -346 -115q-137 -119 -139 -358v-744zM471 1734l103 156v0l90 -156h213l-148 279h-288l-170 -279h200z" />
    <glyph glyph-name="Otilde" unicode="&#xd5;" horiz-adv-x="1139" 
d="M461 1223q-2 47 14 96q19 51 94 53q43 0 66 -12q22 -17 31 -41q14 -49 12 -96v-809q2 -35 -12 -90q-9 -25 -31 -41q-23 -19 -66 -19q-75 2 -94 60q-8 26 -12 51q-2 22 -2 39v809zM84 446q8 -462 485 -473q475 11 486 473v744q-2 239 -138 358q-133 115 -348 115
q-213 0 -346 -115q-137 -119 -139 -358v-744zM810 2005v0q-12 -35 -41 -58q-28 -24 -69 -24q-52 2 -117 37q-66 30 -139 32q-82 -2 -129 -67q-23 -31 -41 -66q-19 -37 -33 -71l98 -37q17 26 43 49q27 22 57 24q62 -2 115 -32q49 -33 121 -35q96 0 149 63q29 29 50 66
q18 37 34 76z" />
    <glyph glyph-name="Odieresis" unicode="&#xd6;" horiz-adv-x="1139" 
d="M461 1223q-2 47 14 96q19 51 94 53q43 0 66 -12q22 -17 31 -41q14 -49 12 -96v-809q2 -35 -12 -90q-9 -25 -31 -41q-23 -19 -66 -19q-75 2 -94 60q-8 26 -12 51q-2 22 -2 39v809zM84 446q8 -462 485 -473q475 11 486 473v744q-2 239 -138 358q-133 115 -348 115
q-213 0 -346 -115q-137 -119 -139 -358v-744zM857 1747v266h-229v-266h229zM525 1747v266h-229v-266h229z" />
    <glyph glyph-name="multiply" unicode="&#xd7;" horiz-adv-x="1229" 
d="M405 666l-294 -295l208 -209v0l295 295v0l295 -295v0l209 209l-295 295l295 294l-209 209v0l-295 -295v0l-295 295v0l-208 -209z" />
    <glyph glyph-name="Oslash" unicode="&#xd8;" horiz-adv-x="1139" 
d="M465 713h-4v510q-2 47 14 96q19 51 94 53q43 0 66 -12q22 -17 31 -41q14 -49 12 -96v-146zM674 836h4v-422q2 -35 -12 -90q-9 -25 -31 -41q-23 -19 -66 -19q-75 2 -94 60q-8 26 -12 51q-2 22 -2 39v57zM47 16l111 -55v0l73 125v0q125 -111 338 -113q475 11 486 473v744
q0 123 -39 215l116 196l-110 56v0l-80 -135v0q-137 141 -373 141q-213 0 -346 -115q-137 -119 -139 -358v-744q0 -147 65 -256z" />
    <glyph glyph-name="Ugrave" unicode="&#xd9;" horiz-adv-x="1139" 
d="M84 446q8 -462 485 -473q475 11 486 473v1190h-377v-1194q2 -65 -12 -114q-9 -23 -31 -35q-23 -17 -66 -17q-75 0 -94 52q-16 49 -14 114v1194h-377v-1190zM298 2013l223 -279h191l-90 279h-324z" />
    <glyph glyph-name="Uacute" unicode="&#xda;" horiz-adv-x="1139" 
d="M84 446q8 -462 485 -473q475 11 486 473v1190h-377v-1194q2 -65 -12 -114q-9 -23 -31 -35q-23 -17 -66 -17q-75 0 -94 52q-16 49 -14 114v1194h-377v-1190zM445 1734h197l217 279h-317z" />
    <glyph glyph-name="Ucircumflex" unicode="&#xdb;" horiz-adv-x="1139" 
d="M84 446q8 -462 485 -473q475 11 486 473v1190h-377v-1194q2 -65 -12 -114q-9 -23 -31 -35q-23 -17 -66 -17q-75 0 -94 52q-16 49 -14 114v1194h-377v-1190zM471 1734l103 156v0l90 -156h213l-148 279h-288l-170 -279h200z" />
    <glyph glyph-name="Udieresis" unicode="&#xdc;" horiz-adv-x="1139" 
d="M84 446q8 -462 485 -473q475 11 486 473v1190h-377v-1194q2 -65 -12 -114q-9 -23 -31 -35q-23 -17 -66 -17q-75 0 -94 52q-16 49 -14 114v1194h-377v-1190zM857 1747v266h-229v-266h229zM525 1747v266h-229v-266h229z" />
    <glyph glyph-name="Yacute" unicode="&#xdd;" 
d="M324 647v-647h376v674l308 962h-383l-111 -553h-4l-105 553h-389zM387 1734h197l217 279h-317z" />
    <glyph glyph-name="Thorn" unicode="&#xde;" horiz-adv-x="1139" 
d="M461 1079h43q49 0 86 -2q35 -4 59 -22q45 -31 45 -174q0 -56 -2 -93q-6 -41 -20 -65q-27 -49 -117 -49h-94v405zM84 0h377v383h225q129 0 207 45q76 41 115 111q38 71 53 157q10 86 10 176q0 306 -113 408q-116 94 -376 90h-121v266h-377v-1636z" />
    <glyph glyph-name="germandbls" unicode="&#xdf;" 
d="M80 0h352v1282q-2 37 10 70q11 28 62 30q55 0 71 -26q13 -27 13 -80v-66q-2 -43 -31 -61q-29 -21 -70 -21v-254q105 2 105 -98v-391q-2 -96 -105 -94v-291h136q188 2 258 125q65 119 63 287v307q0 53 -2 98q-4 43 -23 78q-14 37 -49 61q-32 25 -90 35v4q49 23 80 54
q29 30 43 67q27 76 25 174q-2 182 -115 266q-117 80 -309 80q-176 2 -297 -71q-58 -39 -92 -111q-35 -74 -35 -184v-1270z" />
    <glyph glyph-name="agrave" unicode="&#xe0;" 
d="M944 926q2 211 -92 311q-98 98 -334 98q-184 -2 -297 -86q-115 -88 -117 -233v-119h328v106q-2 89 90 91q86 -2 82 -109q-2 -100 -78 -143q-37 -23 -84 -41l-96 -43q-47 -21 -94 -47q-45 -31 -86 -74q-37 -43 -60 -107q-26 -65 -26 -157q0 -78 10 -150q10 -71 37 -129
q31 -55 88 -86q57 -35 152 -35q159 2 249 127h4v-100h324v926zM604 657v-352q0 -47 -18 -80q-21 -35 -64 -35q-78 -2 -78 105v174q0 74 62 117l98 71v0zM239 1687l223 -279h191l-90 279h-324z" />
    <glyph glyph-name="aacute" unicode="&#xe1;" 
d="M944 926q2 211 -92 311q-98 98 -334 98q-184 -2 -297 -86q-115 -88 -117 -233v-119h328v106q-2 89 90 91q86 -2 82 -109q-2 -100 -78 -143q-37 -23 -84 -41l-96 -43q-47 -21 -94 -47q-45 -31 -86 -74q-37 -43 -60 -107q-26 -65 -26 -157q0 -78 10 -150q10 -71 37 -129
q31 -55 88 -86q57 -35 152 -35q159 2 249 127h4v-100h324v926zM604 657v-352q0 -47 -18 -80q-21 -35 -64 -35q-78 -2 -78 105v174q0 74 62 117l98 71v0zM386 1408h197l217 279h-317z" />
    <glyph glyph-name="acircumflex" unicode="&#xe2;" 
d="M944 926q2 211 -92 311q-98 98 -334 98q-184 -2 -297 -86q-115 -88 -117 -233v-119h328v106q-2 89 90 91q86 -2 82 -109q-2 -100 -78 -143q-37 -23 -84 -41l-96 -43q-47 -21 -94 -47q-45 -31 -86 -74q-37 -43 -60 -107q-26 -65 -26 -157q0 -78 10 -150q10 -71 37 -129
q31 -55 88 -86q57 -35 152 -35q159 2 249 127h4v-100h324v926zM604 657v-352q0 -47 -18 -80q-21 -35 -64 -35q-78 -2 -78 105v174q0 74 62 117l98 71v0zM413 1408l103 156v0l90 -156h213l-148 279h-288l-170 -279h200z" />
    <glyph glyph-name="atilde" unicode="&#xe3;" 
d="M944 926q2 211 -92 311q-98 98 -334 98q-184 -2 -297 -86q-115 -88 -117 -233v-119h328v106q-2 89 90 91q86 -2 82 -109q-2 -100 -78 -143q-37 -23 -84 -41l-96 -43q-47 -21 -94 -47q-45 -31 -86 -74q-37 -43 -60 -107q-26 -65 -26 -157q0 -78 10 -150q10 -71 37 -129
q31 -55 88 -86q57 -35 152 -35q159 2 249 127h4v-100h324v926zM604 657v-352q0 -47 -18 -80q-21 -35 -64 -35q-78 -2 -78 105v174q0 74 62 117l98 71v0zM750 1679v0q-12 -35 -41 -58q-28 -24 -69 -24q-52 2 -117 37q-66 30 -139 32q-82 -2 -129 -67q-23 -31 -41 -66
q-19 -37 -33 -71l98 -37q17 26 43 49q27 22 57 24q62 -2 115 -32q49 -33 121 -35q96 0 149 63q29 29 50 66q18 37 34 76z" />
    <glyph glyph-name="adieresis" unicode="&#xe4;" 
d="M944 926q2 211 -92 311q-98 98 -334 98q-184 -2 -297 -86q-115 -88 -117 -233v-119h328v106q-2 89 90 91q86 -2 82 -109q-2 -100 -78 -143q-37 -23 -84 -41l-96 -43q-47 -21 -94 -47q-45 -31 -86 -74q-37 -43 -60 -107q-26 -65 -26 -157q0 -78 10 -150q10 -71 37 -129
q31 -55 88 -86q57 -35 152 -35q159 2 249 127h4v-100h324v926zM604 657v-352q0 -47 -18 -80q-21 -35 -64 -35q-78 -2 -78 105v174q0 74 62 117l98 71v0zM798 1421v266h-229v-266h229zM466 1421v266h-229v-266h229z" />
    <glyph glyph-name="aring" unicode="&#xe5;" 
d="M944 926q2 211 -92 311q-98 98 -334 98q-184 -2 -297 -86q-115 -88 -117 -233v-119h328v106q-2 89 90 91q86 -2 82 -109q-2 -100 -78 -143q-37 -23 -84 -41l-96 -43q-47 -21 -94 -47q-45 -31 -86 -74q-37 -43 -60 -107q-26 -65 -26 -157q0 -78 10 -150q10 -71 37 -129
q31 -55 88 -86q57 -35 152 -35q159 2 249 127h4v-100h324v926zM604 657v-352q0 -47 -18 -80q-21 -35 -64 -35q-78 -2 -78 105v174q0 74 62 117l98 71v0zM519 1357q88 0 161 40q74 39 76 134q-2 94 -78 133q-75 37 -159 37q-82 0 -158 -37q-37 -19 -59 -51q-25 -33 -25 -82
q0 -50 25 -82q22 -33 59 -56q76 -39 158 -36v0zM519 1606q43 0 86 -10q43 -12 45 -65q-2 -50 -45 -64q-43 -16 -86 -16q-43 -2 -86 14q-47 14 -49 66q2 51 51 65q43 10 84 10v0z" />
    <glyph glyph-name="ae" unicode="&#xe6;" horiz-adv-x="1479" 
d="M922 987q-3 37 10 72q14 33 69 35q31 0 50 -9q16 -10 22 -26q8 -35 8 -72v-143h-159v143zM1409 1018q-6 166 -117 243q-110 74 -246 74q-59 0 -145 -12q-86 -14 -156 -57v0q-108 69 -249 69q-185 -2 -297 -86q-115 -88 -117 -233v-119h328v106q-2 89 90 91q86 -2 82 -109
q-2 -100 -78 -143q-37 -23 -84 -41l-96 -43q-48 -21 -91 -47q-47 -31 -84 -74q-34 -43 -57 -107q-22 -65 -22 -157q0 -78 8 -150q8 -71 35 -129q28 -55 86 -86q57 -35 155 -35q54 0 127 25q37 16 80 49q41 31 80 84v0q98 -106 188 -133q86 -25 197 -25q156 0 268 70
q113 72 115 242v200h-328v-168q0 -102 -80 -102q-26 -2 -51 18q-28 17 -28 74v295h487v416zM582 657v-352q0 -47 -19 -80q-20 -35 -63 -35q-78 -2 -78 105v174q0 74 61 117l99 71v0z" />
    <glyph glyph-name="ccedilla" unicode="&#xe7;" 
d="M559 -23q119 9 195 46q75 38 116 92q43 57 60 118q14 60 14 113v211h-352v-235q0 -37 -8 -70q-13 -35 -72 -37q-55 2 -70 37q-12 33 -10 70v665q-2 37 10 72q15 33 70 35q31 0 49 -9q16 -10 23 -26q8 -35 8 -72v-164h352v139q0 60 -16 125q-9 33 -25 64t-41 57
q-47 58 -133 92q-86 35 -217 35t-213 -35q-84 -34 -133 -92q-47 -55 -66 -121q-20 -65 -20 -125v-616q0 -53 18 -113q17 -59 56 -112q38 -53 112 -92t182 -49l-114 -150l45 -39q39 17 82 17q88 0 88 -80q-2 -41 -33 -56q-33 -14 -72 -14q-86 2 -168 37l-38 -55
q59 -25 133 -43q71 -19 141 -21q76 0 152 33q75 33 77 131q-2 78 -49 121q-47 41 -125 41q-45 2 -82 -11h-4z" />
    <glyph glyph-name="egrave" unicode="&#xe8;" 
d="M80 346q0 -55 20 -119q19 -65 66 -123q49 -57 133 -92q82 -37 213 -39q131 2 217 39q86 35 133 92q25 29 41 62q16 31 25 61q16 64 16 119v139h-352v-163q0 -37 -8 -70q-13 -35 -72 -37q-55 2 -70 37q-12 33 -10 70v280h512v360q0 60 -16 125q-9 33 -25 64t-41 57
q-47 58 -133 92q-86 35 -217 35t-213 -35q-84 -34 -133 -92q-47 -55 -66 -121q-20 -65 -20 -125v-616zM432 987q-2 37 10 72q15 33 70 35q31 0 49 -9q16 -10 23 -26q8 -35 8 -72v-143h-160v143zM239 1687l223 -279h191l-90 279h-324z" />
    <glyph glyph-name="eacute" unicode="&#xe9;" 
d="M80 346q0 -55 20 -119q19 -65 66 -123q49 -57 133 -92q82 -37 213 -39q131 2 217 39q86 35 133 92q25 29 41 62q16 31 25 61q16 64 16 119v139h-352v-163q0 -37 -8 -70q-13 -35 -72 -37q-55 2 -70 37q-12 33 -10 70v280h512v360q0 60 -16 125q-9 33 -25 64t-41 57
q-47 58 -133 92q-86 35 -217 35t-213 -35q-84 -34 -133 -92q-47 -55 -66 -121q-20 -65 -20 -125v-616zM432 987q-2 37 10 72q15 33 70 35q31 0 49 -9q16 -10 23 -26q8 -35 8 -72v-143h-160v143zM386 1408h197l217 279h-317z" />
    <glyph glyph-name="ecircumflex" unicode="&#xea;" 
d="M80 346q0 -55 20 -119q19 -65 66 -123q49 -57 133 -92q82 -37 213 -39q131 2 217 39q86 35 133 92q25 29 41 62q16 31 25 61q16 64 16 119v139h-352v-163q0 -37 -8 -70q-13 -35 -72 -37q-55 2 -70 37q-12 33 -10 70v280h512v360q0 60 -16 125q-9 33 -25 64t-41 57
q-47 58 -133 92q-86 35 -217 35t-213 -35q-84 -34 -133 -92q-47 -55 -66 -121q-20 -65 -20 -125v-616zM432 987q-2 37 10 72q15 33 70 35q31 0 49 -9q16 -10 23 -26q8 -35 8 -72v-143h-160v143zM413 1408l103 156v0l90 -156h213l-148 279h-288l-170 -279h200z" />
    <glyph glyph-name="edieresis" unicode="&#xeb;" 
d="M80 346q0 -55 20 -119q19 -65 66 -123q49 -57 133 -92q82 -37 213 -39q131 2 217 39q86 35 133 92q25 29 41 62q16 31 25 61q16 64 16 119v139h-352v-163q0 -37 -8 -70q-13 -35 -72 -37q-55 2 -70 37q-12 33 -10 70v280h512v360q0 60 -16 125q-9 33 -25 64t-41 57
q-47 58 -133 92q-86 35 -217 35t-213 -35q-84 -34 -133 -92q-47 -55 -66 -121q-20 -65 -20 -125v-616zM432 987q-2 37 10 72q15 33 70 35q31 0 49 -9q16 -10 23 -26q8 -35 8 -72v-143h-160v143zM798 1421v266h-229v-266h229zM466 1421v266h-229v-266h229z" />
    <glyph glyph-name="igrave" unicode="&#xec;" horiz-adv-x="569" 
d="M461 0v1309h-352v-1309h352zM5 1687l223 -279h191l-90 279h-324z" />
    <glyph glyph-name="iacute" unicode="&#xed;" horiz-adv-x="569" 
d="M461 0v1309h-352v-1309h352zM151 1408h197l217 279h-317z" />
    <glyph glyph-name="icircumflex" unicode="&#xee;" horiz-adv-x="569" 
d="M461 0v1309h-352v-1309h352zM179 1408l103 156v0l90 -156h213l-148 279h-288l-170 -279h200z" />
    <glyph glyph-name="idieresis" unicode="&#xef;" horiz-adv-x="569" 
d="M461 0v1309h-352v-1309h352zM564 1421v266h-229v-266h229zM232 1421v266h-229v-266h229z" />
    <glyph glyph-name="eth" unicode="&#xf0;" 
d="M80 346q0 -55 20 -119q19 -65 66 -123q49 -57 133 -92q82 -37 213 -39q131 2 217 39q86 35 133 92q25 29 41 62q16 31 25 61q16 64 16 119v502q0 168 -39 319q-45 152 -160 273l199 84l-98 133v0l-228 -94v0q-86 49 -186 100v0l-223 -109q121 -49 170 -90l-180 -74
l110 -114v0l191 80v0q49 -52 73 -103q23 -53 23 -78q-51 17 -105 17q-157 0 -280 -84q-127 -86 -131 -254v-508zM432 844q-2 37 10 71q15 33 70 35q31 0 49 -8q16 -10 23 -27q8 -34 8 -71v-522q0 -37 -8 -70q-13 -35 -72 -37q-55 2 -70 37q-12 33 -10 70v522z" />
    <glyph glyph-name="ntilde" unicode="&#xf1;" 
d="M80 0h352v895q-2 29 10 76q15 47 70 49q31 0 49 -10q16 -13 23 -33q8 -43 8 -82v-895h352v1055q0 123 -61 200q-64 78 -191 80q-100 0 -160 -43q-61 -45 -108 -129h-4v146h-340v-1309zM750 1679v0q-12 -35 -41 -58q-28 -24 -69 -24q-52 2 -117 37q-66 30 -139 32
q-82 -2 -129 -67q-23 -31 -41 -66q-19 -37 -33 -71l98 -37q17 26 43 49q27 22 57 24q62 -2 115 -32q49 -33 121 -35q96 0 149 63q29 29 50 66q18 37 34 76z" />
    <glyph glyph-name="ograve" unicode="&#xf2;" 
d="M80 346q0 -55 20 -119q19 -65 66 -123q49 -57 133 -92q82 -37 213 -39q131 2 217 39q86 35 133 92q25 29 41 62q16 31 25 61q16 64 16 119v616q0 60 -16 125q-9 33 -25 64t-41 57q-47 58 -133 92q-86 35 -217 35t-213 -35q-84 -34 -133 -92q-47 -55 -66 -121
q-20 -65 -20 -125v-616zM432 987q-2 37 10 72q15 33 70 35q31 0 49 -9q16 -10 23 -26q8 -35 8 -72v-665q0 -37 -8 -70q-13 -35 -72 -37q-55 2 -70 37q-12 33 -10 70v665zM239 1687l223 -279h191l-90 279h-324z" />
    <glyph glyph-name="oacute" unicode="&#xf3;" 
d="M80 346q0 -55 20 -119q19 -65 66 -123q49 -57 133 -92q82 -37 213 -39q131 2 217 39q86 35 133 92q25 29 41 62q16 31 25 61q16 64 16 119v616q0 60 -16 125q-9 33 -25 64t-41 57q-47 58 -133 92q-86 35 -217 35t-213 -35q-84 -34 -133 -92q-47 -55 -66 -121
q-20 -65 -20 -125v-616zM432 987q-2 37 10 72q15 33 70 35q31 0 49 -9q16 -10 23 -26q8 -35 8 -72v-665q0 -37 -8 -70q-13 -35 -72 -37q-55 2 -70 37q-12 33 -10 70v665zM386 1408h197l217 279h-317z" />
    <glyph glyph-name="ocircumflex" unicode="&#xf4;" 
d="M80 346q0 -55 20 -119q19 -65 66 -123q49 -57 133 -92q82 -37 213 -39q131 2 217 39q86 35 133 92q25 29 41 62q16 31 25 61q16 64 16 119v616q0 60 -16 125q-9 33 -25 64t-41 57q-47 58 -133 92q-86 35 -217 35t-213 -35q-84 -34 -133 -92q-47 -55 -66 -121
q-20 -65 -20 -125v-616zM432 987q-2 37 10 72q15 33 70 35q31 0 49 -9q16 -10 23 -26q8 -35 8 -72v-665q0 -37 -8 -70q-13 -35 -72 -37q-55 2 -70 37q-12 33 -10 70v665zM413 1408l103 156v0l90 -156h213l-148 279h-288l-170 -279h200z" />
    <glyph glyph-name="otilde" unicode="&#xf5;" 
d="M80 346q0 -55 20 -119q19 -65 66 -123q49 -57 133 -92q82 -37 213 -39q131 2 217 39q86 35 133 92q25 29 41 62q16 31 25 61q16 64 16 119v616q0 60 -16 125q-9 33 -25 64t-41 57q-47 58 -133 92q-86 35 -217 35t-213 -35q-84 -34 -133 -92q-47 -55 -66 -121
q-20 -65 -20 -125v-616zM432 987q-2 37 10 72q15 33 70 35q31 0 49 -9q16 -10 23 -26q8 -35 8 -72v-665q0 -37 -8 -70q-13 -35 -72 -37q-55 2 -70 37q-12 33 -10 70v665zM750 1679v0q-12 -35 -41 -58q-28 -24 -69 -24q-52 2 -117 37q-66 30 -139 32q-82 -2 -129 -67
q-23 -31 -41 -66q-19 -37 -33 -71l98 -37q17 26 43 49q27 22 57 24q62 -2 115 -32q49 -33 121 -35q96 0 149 63q29 29 50 66q18 37 34 76z" />
    <glyph glyph-name="odieresis" unicode="&#xf6;" 
d="M80 346q0 -55 20 -119q19 -65 66 -123q49 -57 133 -92q82 -37 213 -39q131 2 217 39q86 35 133 92q25 29 41 62q16 31 25 61q16 64 16 119v616q0 60 -16 125q-9 33 -25 64t-41 57q-47 58 -133 92q-86 35 -217 35t-213 -35q-84 -34 -133 -92q-47 -55 -66 -121
q-20 -65 -20 -125v-616zM432 987q-2 37 10 72q15 33 70 35q31 0 49 -9q16 -10 23 -26q8 -35 8 -72v-665q0 -37 -8 -70q-13 -35 -72 -37q-55 2 -70 37q-12 33 -10 70v665zM798 1421v266h-229v-266h229zM466 1421v266h-229v-266h229z" />
    <glyph glyph-name="divide" unicode="&#xf7;" horiz-adv-x="1229" 
d="M1132 520v291h-1036v-291h1036zM614 1290q-84 -2 -141 -55q-59 -57 -59 -146q0 -84 59 -141q57 -59 141 -59q88 0 146 59q53 57 55 141q-2 89 -55 146q-58 53 -146 55v0zM815 242q-2 88 -55 145q-58 53 -146 55q-84 -2 -141 -55q-59 -57 -59 -145q0 -84 59 -142
q57 -59 141 -59q88 0 146 59q53 58 55 142v0z" />
    <glyph glyph-name="oslash" unicode="&#xf8;" 
d="M436 627h-4v360q-2 37 10 72q15 33 70 35q31 0 49 -9q16 -10 23 -26q8 -35 8 -72v-119zM588 659h4v-337q0 -37 -8 -70q-13 -35 -72 -37q-55 2 -70 37q-12 33 -10 70v96zM80 346q-2 -88 45 -184l-98 -148l88 -69v0l86 123v0q96 -93 311 -95q131 2 217 39q86 35 133 92
q25 29 41 62q16 31 25 61q16 64 16 119v616q0 84 -39 173l98 151l-88 66v0l-82 -119v0q-47 47 -126 76q-78 26 -195 26q-131 0 -213 -35q-84 -34 -133 -92q-47 -55 -66 -121q-20 -65 -20 -125v-616z" />
    <glyph glyph-name="ugrave" unicode="&#xf9;" 
d="M944 1309h-352v-895q0 -27 -8 -72q-7 -20 -23 -37q-18 -16 -49 -16q-55 2 -70 47q-6 18 -8 41q-2 22 -2 37v895h-352v-1055q0 -119 65 -199q62 -80 187 -82q100 2 162 45q63 43 106 127h4v-145h340v1309zM239 1687l223 -279h191l-90 279h-324z" />
    <glyph glyph-name="uacute" unicode="&#xfa;" 
d="M944 1309h-352v-895q0 -27 -8 -72q-7 -20 -23 -37q-18 -16 -49 -16q-55 2 -70 47q-6 18 -8 41q-2 22 -2 37v895h-352v-1055q0 -119 65 -199q62 -80 187 -82q100 2 162 45q63 43 106 127h4v-145h340v1309zM386 1408h197l217 279h-317z" />
    <glyph glyph-name="ucircumflex" unicode="&#xfb;" 
d="M944 1309h-352v-895q0 -27 -8 -72q-7 -20 -23 -37q-18 -16 -49 -16q-55 2 -70 47q-6 18 -8 41q-2 22 -2 37v895h-352v-1055q0 -119 65 -199q62 -80 187 -82q100 2 162 45q63 43 106 127h4v-145h340v1309zM413 1408l103 156v0l90 -156h213l-148 279h-288l-170 -279h200z
" />
    <glyph glyph-name="udieresis" unicode="&#xfc;" 
d="M944 1309h-352v-895q0 -27 -8 -72q-7 -20 -23 -37q-18 -16 -49 -16q-55 2 -70 47q-6 18 -8 41q-2 22 -2 37v895h-352v-1055q0 -119 65 -199q62 -80 187 -82q100 2 162 45q63 43 106 127h4v-145h340v1309zM798 1421v266h-229v-266h229zM466 1421v266h-229v-266h229z" />
    <glyph glyph-name="yacute" unicode="&#xfd;" horiz-adv-x="909" 
d="M109 -238h163q113 0 183 23q67 18 106 59q78 82 109 267l229 1198h-346l-90 -920h-4l-88 920h-361l215 -1098q21 -96 23 -148q0 -26 -17 -36q-16 -11 -43 -11h-79v-254zM328 1408h197l217 279h-317z" />
    <glyph glyph-name="thorn" unicode="&#xfe;" 
d="M80 -225h352v344h4q53 -72 111 -109q55 -37 153 -37q121 2 183 88q61 82 61 191v758q0 151 -57 239q-62 84 -205 86q-176 -2 -246 -157h-4v458h-352v-1861zM432 856q-2 72 12 141q13 70 78 72q29 0 49 -16q21 -19 21 -70v-651q0 -60 -15 -76q-18 -18 -55 -16
q-53 2 -71 55q-21 49 -19 110v451z" />
    <glyph glyph-name="ydieresis" unicode="&#xff;" horiz-adv-x="909" 
d="M109 -238h163q113 0 183 23q67 18 106 59q78 82 109 267l229 1198h-346l-90 -920h-4l-88 920h-361l215 -1098q21 -96 23 -148q0 -26 -17 -36q-16 -11 -43 -11h-79v-254zM740 1421v266h-229v-266h229zM408 1421v266h-229v-266h229z" />
    <glyph glyph-name="hyphen" horiz-adv-x="682" 
d="M72 541h538v303h-538v-303z" />
    <glyph glyph-name="fraction" horiz-adv-x="342" 
d="M-360 -53h208l854 1716h-208z" />
    <glyph glyph-name="fi" 
d="M588 0h352v1309h-352v-1309zM588 1395h352v241h-352v-241zM0 1040h84v-1040h352v1040h88v254h-100v47q-4 64 65 66h35v229h-133q-61 0 -117 -4q-55 -6 -98 -31q-43 -22 -65 -73q-27 -51 -27 -140v-94h-84v-254z" />
    <glyph glyph-name="fl" 
d="M588 0h352v1636h-352v-1636zM0 1040h84v-1040h352v1040h88v254h-100v47q-4 64 65 66h35v229h-133q-61 0 -117 -4q-55 -6 -98 -31q-43 -22 -65 -73q-27 -51 -27 -140v-94h-84v-254z" />
    <glyph glyph-name="breve" horiz-adv-x="569" 
d="M-23 1704q7 -285 308 -283q135 0 221 70q84 69 86 213h-156q-16 -131 -151 -127q-66 0 -107 31q-41 30 -45 96h-156z" />
    <glyph glyph-name="dotaccent" horiz-adv-x="569" 
d="M399 1438v266h-229v-266h229z" />
    <glyph glyph-name="ring" horiz-adv-x="569" 
d="M287 1393q88 0 161 40q74 39 76 134q-2 94 -78 133q-75 37 -159 37q-82 0 -158 -37q-37 -19 -59 -51q-25 -33 -25 -82q0 -50 25 -82q22 -33 59 -56q76 -39 158 -36v0zM287 1642q43 0 86 -10q43 -12 45 -65q-2 -50 -45 -64q-43 -16 -86 -16q-43 -2 -86 14q-47 14 -49 66
q2 51 51 65q43 10 84 10v0z" />
    <glyph glyph-name="ogonek" horiz-adv-x="569" 
d="M465 -274q-53 -35 -115 -37q-39 0 -57 22q-21 23 -21 86q2 78 56 129q49 47 116 86h-143q-84 -28 -149 -94q-70 -65 -72 -162q0 -92 57 -127q55 -34 139 -34q60 2 115 24q53 23 98 55z" />
    <glyph glyph-name="caron" horiz-adv-x="569" 
d="M127 1425h289l161 279h-198l-98 -150v0l-91 150h-198z" />
    <glyph glyph-name="Lslash" horiz-adv-x="909" 
d="M-6 590v0l90 55v0v-645h786v315h-409v561l200 123v254v0l-200 -123v0v506h-377v-737l-90 -55v-254z" />
    <glyph glyph-name="dotlessi" horiz-adv-x="569" 
d="M461 0v1309h-352v-1309h352z" />
    <glyph glyph-name="lslash" horiz-adv-x="569" 
d="M0 590v0l109 65v0v-655h352v870l108 68v254v0l-108 -68v0v512h-352v-727l-109 -65v-254z" />
    <glyph glyph-name="minus" horiz-adv-x="1229" 
d="M1132 520v291h-1036v-291h1036z" />
    </font>
</defs>
</svg>
